<svg width="25" height="24" viewBox="0 0 25 24" fill="none" xmlns="http://www.w3.org/2000/svg">
<path d="M18.0394 21.1976C16.9507 22.253 15.7619 22.0864 14.6176 21.5864C13.4067 21.0754 12.2957 21.0532 11.0181 21.5864C9.41829 22.2752 8.57395 22.0752 7.61852 21.1976C2.19698 15.6094 2.99688 7.09936 9.15166 6.78828C10.6515 6.86605 11.6958 7.6104 12.5734 7.67706C13.8844 7.41043 15.1398 6.64386 16.5396 6.74385C18.2172 6.87716 19.4837 7.54374 20.3169 8.74359C16.8507 10.8211 17.6728 15.3872 20.8502 16.6648C20.2169 18.3313 19.3948 19.9866 18.0283 21.2087L18.0394 21.1976ZM12.4624 6.72163C12.2957 4.24416 14.3066 2.19997 16.6174 2C16.9396 4.8663 14.0177 6.99937 12.4624 6.72163Z" fill="black"/>
</svg>
