<svg width="24" height="24" viewBox="0 0 24 24" fill="none" xmlns="http://www.w3.org/2000/svg">
<g clip-path="url(#clip0_1_8310)">
<path d="M21.8501 4.31815H2.14993C1.84907 4.31815 1.54236 4.30802 1.24511 4.36147C0.945193 4.41539 0.666935 4.55196 0.450752 4.76824C0.234522 4.98456 0.0977135 5.26263 0.0441248 5.56274C-0.00951081 5.85975 0.000803729 6.16698 0.000803729 6.46746V17.5326C0.000803729 17.833 -0.00955769 18.1402 0.0441248 18.4371C0.0982292 18.7366 0.234569 19.0158 0.450752 19.2316C0.666841 19.4474 0.945709 19.5847 1.24511 19.6386C1.54226 19.6916 1.84936 19.6817 2.14998 19.6817H21.8501C22.151 19.6817 22.4577 19.6915 22.755 19.6386C23.0545 19.5852 23.3334 19.4474 23.5492 19.2316C23.7653 19.0156 23.9026 18.7369 23.9558 18.4371C24.0095 18.1403 23.9993 17.8329 23.9993 17.5326V6.46746C23.9993 6.16684 24.0095 5.8598 23.9558 5.56274C23.9018 5.26404 23.7643 4.98367 23.5492 4.76824C23.3335 4.55215 23.0544 4.41515 22.755 4.36147C22.4575 4.30811 22.151 4.31815 21.8501 4.31815Z" fill="black"/>
<path d="M21.8501 4.83C22.1197 4.83051 22.3975 4.81739 22.6642 4.86521C22.8611 4.90051 23.0445 4.98781 23.1868 5.12982C23.3297 5.27254 23.4167 5.4559 23.4519 5.65361C23.5001 5.92034 23.4872 6.19733 23.4872 6.46724V17.5323C23.4872 17.802 23.4998 18.0807 23.4516 18.3473C23.416 18.544 23.3291 18.7273 23.1871 18.8693C23.0449 19.0114 22.8618 19.0988 22.6651 19.1342C22.3982 19.1818 22.12 19.1695 21.8501 19.1695H2.14676C1.87765 19.1695 1.60173 19.1819 1.33571 19.1344C1.13828 19.0991 0.954966 19.0117 0.812579 18.8691C0.670894 18.7271 0.583033 18.542 0.548058 18.3459C0.50047 18.0795 0.51266 17.8018 0.512941 17.5324V6.46729C0.512941 6.1022 0.470558 5.70214 0.641967 5.36537C0.729875 5.19269 0.875919 5.04684 1.0485 4.95907C1.38161 4.78968 1.78777 4.83079 2.15 4.83004L21.8501 4.83Z" fill="white"/>
<path d="M6.55227 9.48551C6.75777 9.22849 6.8972 8.88343 6.86039 8.53076C6.55958 8.54572 6.19253 8.72922 5.98 8.98643C5.78918 9.20669 5.62031 9.56625 5.66433 9.90409C6.00204 9.93335 6.33937 9.73531 6.55227 9.48551ZM6.85655 9.97006C6.36619 9.94085 5.94925 10.2484 5.71511 10.2484C5.48083 10.2484 5.12221 9.98478 4.73433 9.99186C4.22953 9.99927 3.76111 10.2847 3.50494 10.7387C2.97805 11.6468 3.36588 12.9939 3.87827 13.7336C4.12709 14.0995 4.42696 14.5024 4.8221 14.4879C5.19544 14.4733 5.34177 14.2462 5.79556 14.2462C6.24902 14.2462 6.38082 14.4879 6.77605 14.4806C7.18586 14.4733 7.44209 14.1145 7.6909 13.7482C7.97633 13.3311 8.09322 12.9283 8.10058 12.9062C8.09322 12.8989 7.3103 12.5986 7.30308 11.698C7.29567 10.9439 7.91773 10.5852 7.94703 10.563C7.59573 10.0433 7.04685 9.98474 6.85655 9.97006ZM11.1263 8.94953C12.1921 8.94953 12.9342 9.68421 12.9342 10.7538C12.9342 11.8272 12.1768 12.5657 11.0995 12.5657H9.9195V14.4423H9.06691V8.94953H11.1263ZM9.9195 11.8501H10.8978C11.6401 11.8501 12.0625 11.4504 12.0625 10.7576C12.0625 10.0649 11.6401 9.66897 10.9016 9.66897H9.9195V11.8501ZM13.157 13.3042C13.157 12.6037 13.6937 12.1736 14.6454 12.1203L15.7416 12.0556V11.7473C15.7416 11.3019 15.4409 11.0355 14.9386 11.0355C14.4626 11.0355 14.1657 11.2638 14.0935 11.6217H13.317C13.3626 10.8984 13.9793 10.3655 14.969 10.3655C15.9396 10.3655 16.56 10.8794 16.56 11.6825V14.4422H15.7721V13.7837H15.7531C15.5209 14.2291 15.0146 14.5107 14.4894 14.5107C13.7052 14.5108 13.157 14.0236 13.157 13.3042ZM15.7416 12.9426V12.6266L14.7557 12.6875C14.2646 12.7217 13.9868 12.9387 13.9868 13.2813C13.9868 13.6314 14.276 13.8599 14.7176 13.8599C15.2924 13.8599 15.7416 13.464 15.7416 12.9426ZM17.3039 15.9155V15.2493C17.3647 15.2645 17.5017 15.2645 17.5703 15.2645C17.9509 15.2645 18.1564 15.1046 18.282 14.6936C18.282 14.6859 18.3544 14.4499 18.3544 14.4461L16.908 10.4379H17.7986L18.8112 13.6963H18.8264L19.839 10.4379H20.7069L19.207 14.6516C18.8645 15.6223 18.4687 15.9345 17.6388 15.9345C17.5703 15.9344 17.3647 15.9268 17.3039 15.9155Z" fill="black"/>
</g>
<defs>
<clipPath id="clip0_1_8310">
<rect width="24" height="24" fill="white"/>
</clipPath>
</defs>
</svg>
