<svg width="34" height="14" viewBox="0 0 34 14" fill="none" xmlns="http://www.w3.org/2000/svg">
<g clip-path="url(#clip0_13429_9023)">
<path d="M6.21564 1.80495C5.8172 2.27783 5.1797 2.65081 4.5422 2.59753C4.46251 1.95814 4.77462 1.27878 5.13985 0.859182C5.53829 0.372978 6.23556 0.0266413 6.80001 0C6.86642 0.666032 6.60743 1.31874 6.21564 1.80495ZM6.79337 2.72407C5.87032 2.67079 5.08009 3.25024 4.64181 3.25024C4.19689 3.25024 3.52618 2.75071 2.79571 2.76403C1.8461 2.77735 0.962902 3.31684 0.478136 4.17602C-0.517957 5.89439 0.219152 8.43863 1.18204 9.8373C1.65353 10.53 2.21798 11.2892 2.96173 11.2626C3.66564 11.236 3.94454 10.803 4.79454 10.803C5.65118 10.803 5.89689 11.2626 6.64064 11.2493C7.41095 11.236 7.89571 10.5566 8.3672 9.86394C8.90509 9.07802 9.12423 8.31208 9.13751 8.27212C9.12423 8.2588 7.65001 7.69267 7.63673 5.98763C7.62345 4.56232 8.79884 3.88297 8.85196 3.84301C8.1879 2.85728 7.15196 2.75071 6.79337 2.72407ZM12.1258 0.792578V11.176H13.7328V7.62607H15.9574C17.9895 7.62607 19.4172 6.2274 19.4172 4.20266C19.4172 2.17793 18.016 0.792578 16.0106 0.792578H12.1258ZM13.7328 2.15128H15.5856C16.9801 2.15128 17.777 2.89724 17.777 4.20932C17.777 5.52141 16.9801 6.27402 15.5789 6.27402H13.7328V2.15128ZM22.3524 11.2559C23.3617 11.2559 24.2981 10.7431 24.7231 9.93054H24.7563V11.176H26.2438V6.00761C26.2438 4.50904 25.0484 3.54329 23.209 3.54329C21.5024 3.54329 20.2406 4.52236 20.1942 5.86774H21.6418C21.7613 5.22835 22.3524 4.80875 23.1625 4.80875C24.1453 4.80875 24.6965 5.26832 24.6965 6.11418V6.68696L22.691 6.80685C20.825 6.92008 19.8156 7.68601 19.8156 9.01808C19.8156 10.3635 20.8582 11.2559 22.3524 11.2559ZM22.784 10.0238C21.9274 10.0238 21.3828 9.61085 21.3828 8.97812C21.3828 8.32541 21.9074 7.94577 22.9102 7.88582L24.6965 7.7726V8.35871C24.6965 9.33111 23.8731 10.0238 22.784 10.0238ZM28.2293 14C29.7965 14 30.5336 13.4006 31.1777 11.5823L34 3.6432H32.3664L30.4738 9.77736H30.4406L28.5481 3.6432H26.868L29.5906 11.2027L29.4445 11.6622C29.1988 12.4415 28.8004 12.7412 28.0899 12.7412C27.9637 12.7412 27.718 12.7279 27.6184 12.7146V13.96C27.7113 13.9867 28.1098 14 28.2293 14Z" fill="black"/>
</g>
<defs>
<clipPath id="clip0_13429_9023">
<rect width="34" height="14" fill="white"/>
</clipPath>
</defs>
</svg>
