<svg width="23" height="22" viewBox="0 0 23 22" fill="none" xmlns="http://www.w3.org/2000/svg">
<path d="M8.77849 6.9209C8.71128 6.98821 8.65794 7.06817 8.62156 7.1562C8.58517 7.24424 8.56645 7.33861 8.56645 7.43392C8.56645 7.52924 8.58517 7.62361 8.62156 7.71165C8.65794 7.79968 8.71128 7.87964 8.77849 7.94695L11.8746 11.057L8.7756 14.167C8.7085 14.2343 8.65524 14.3142 8.61889 14.4021C8.58254 14.49 8.56379 14.5843 8.56372 14.6795C8.56359 14.8718 8.63955 15.0563 8.77487 15.1923C8.9102 15.3284 9.09381 15.4049 9.28532 15.405C9.47684 15.4052 9.66058 15.3289 9.7961 15.193L12.8951 12.0816L15.9927 15.193C16.0598 15.2603 16.1394 15.3137 16.2271 15.35C16.3147 15.3864 16.4086 15.4051 16.5035 15.405C16.5983 15.405 16.6922 15.3862 16.7798 15.3497C16.8674 15.3132 16.9469 15.2597 17.0139 15.1923C17.0809 15.1249 17.1341 15.045 17.1703 14.957C17.2065 14.869 17.2251 14.7747 17.2251 14.6795C17.225 14.5843 17.2063 14.49 17.1699 14.4021C17.1335 14.3142 17.0803 14.2343 17.0132 14.167L13.9171 11.057L17.0146 7.94695C17.0817 7.87968 17.135 7.79978 17.1714 7.71184C17.2077 7.62391 17.2264 7.52964 17.2265 7.43443C17.2266 7.33922 17.208 7.24494 17.1717 7.15696C17.1355 7.06897 17.0824 6.989 17.0154 6.92163C16.9484 6.85425 16.8688 6.80079 16.7812 6.76429C16.6936 6.72779 16.5997 6.70898 16.5049 6.70892C16.4101 6.70885 16.3162 6.72754 16.2285 6.76391C16.1409 6.80029 16.0612 6.85362 15.9941 6.9209L12.8966 10.0324L9.79753 6.9209C9.66219 6.78505 9.47865 6.70874 9.28728 6.70874C9.09591 6.70874 8.91237 6.78505 8.77703 6.9209H8.77849Z" fill="#1E1160"/>
<path d="M20.1133 0.911621C20.8789 0.911621 21.6132 1.21699 22.1546 1.76055C22.696 2.30411 23.0001 3.04135 23.0001 3.81006V18.3022C23.0001 19.071 22.696 19.8082 22.1546 20.3518C21.6132 20.8953 20.8789 21.2007 20.1133 21.2007H9.89383C9.4771 21.2005 9.06535 21.1097 8.68687 20.9346C8.30839 20.7595 7.97215 20.5042 7.70128 20.1862L0.710775 11.9981C0.487147 11.7356 0.364258 11.4016 0.364258 11.0562C0.364258 10.7107 0.487147 10.3767 0.710775 10.1142L7.70128 1.92607C7.97215 1.60811 8.30839 1.3528 8.68687 1.17769C9.06535 1.00257 9.4771 0.911803 9.89383 0.911621H20.1133ZM9.89383 2.36084C9.68534 2.36083 9.47933 2.40616 9.28995 2.49372C9.10058 2.58128 8.93236 2.709 8.79684 2.86808L1.80634 11.0562L8.79827 19.2442C8.93363 19.4031 9.10164 19.5307 9.29075 19.6183C9.47986 19.7058 9.68559 19.7513 9.89383 19.7515H20.1133C20.4961 19.7515 20.8632 19.5988 21.1339 19.327C21.4046 19.0552 21.5567 18.6866 21.5567 18.3022V3.81006C21.5567 3.4257 21.4046 3.05709 21.1339 2.78531C20.8632 2.51352 20.4961 2.36084 20.1133 2.36084H9.89383Z" fill="#1E1160"/>
</svg>
