<svg width="44" height="44" viewBox="0 0 44 44" fill="none" xmlns="http://www.w3.org/2000/svg">
<rect x="0.75" y="0.75" width="42.5" height="42.5" rx="21.25" fill="white" fill-opacity="0.1"/>
<rect x="0.75" y="0.75" width="42.5" height="42.5" rx="21.25" stroke="white" stroke-width="1.5"/>
<path d="M25 18H25.01M13 25.9998L18 20.9998C18.928 20.1068 20.072 20.1068 21 20.9998L26 25.9998M24 23.9998L25 22.9998C25.928 22.1068 27.072 22.1068 28 22.9998L31 25.9998M13 16C13 15.2044 13.3161 14.4413 13.8787 13.8787C14.4413 13.3161 15.2044 13 16 13H28C28.7956 13 29.5587 13.3161 30.1213 13.8787C30.6839 14.4413 31 15.2044 31 16V28C31 28.7956 30.6839 29.5587 30.1213 30.1213C29.5587 30.6839 28.7956 31 28 31H16C15.2044 31 14.4413 30.6839 13.8787 30.1213C13.3161 29.5587 13 28.7956 13 28V16Z" stroke="white" stroke-width="1.5" stroke-linecap="round" stroke-linejoin="round"/>
</svg>
