<svg width="70" height="44" viewBox="0 0 70 44" fill="none" xmlns="http://www.w3.org/2000/svg">
<rect x="0.5" y="0.628662" width="68.2593" height="42.7427" rx="4.38889" fill="#2D74FF"/>
<rect x="0.5" y="0.628662" width="68.2593" height="42.7427" rx="4.38889" stroke="#EAECF0"/>
<rect x="4.88867" y="5.01758" width="21.1852" height="16.2963" rx="3.25926" fill="white" fill-opacity="0.2"/>
<path d="M8.14746 5.4248H22.8145C24.3893 5.4248 25.6658 6.70155 25.666 8.27637V18.0547C25.666 19.6297 24.3895 20.9062 22.8145 20.9062H8.14746C6.57267 20.906 5.29594 19.6295 5.2959 18.0547V8.27637C5.29615 6.70171 6.5728 5.42506 8.14746 5.4248Z" stroke="white" stroke-width="0.814815"/>
<path d="M5.7041 9.90649H10.593C11.493 9.90649 12.2226 10.6361 12.2226 11.5361V20.4991" stroke="white" stroke-width="0.814815"/>
<path d="M5.7041 13.5731H11.8152" stroke="white" stroke-width="0.814815"/>
<path d="M5.7041 17.6472H11.8152" stroke="white" stroke-width="0.814815"/>
<path d="M19.9629 5.01758V20.4991" stroke="white" stroke-width="0.814815"/>
<path d="M19.5547 9.49902H25.2584" stroke="white" stroke-width="0.814815"/>
<path d="M19.5547 13.5731H25.2584" stroke="white" stroke-width="0.814815"/>
<path d="M19.5547 17.6472H25.2584" stroke="white" stroke-width="0.814815"/>
<path d="M57.2593 37.167C56.175 37.1672 55.1151 36.8458 54.2134 36.2436C53.3118 35.6413 52.6091 34.7853 52.194 33.7836C51.7789 32.782 51.6702 31.6797 51.8815 30.6163C52.0929 29.5528 52.6149 28.5759 53.3815 27.8091C54.148 27.0423 55.1248 26.5201 56.1881 26.3084C57.2515 26.0967 58.3538 26.2051 59.3556 26.6199C60.3574 27.0346 61.2137 27.7372 61.8162 28.6386C62.4187 29.54 62.7404 30.5999 62.7405 31.6841V31.685C62.739 33.1383 62.1611 34.5317 61.1335 35.5594C60.1059 36.5872 58.7126 37.1653 57.2593 37.167Z" fill="white"/>
<path d="M51.112 37.1669C50.0277 37.1669 48.9678 36.8454 48.0663 36.243C47.1648 35.6406 46.4621 34.7845 46.0472 33.7827C45.6323 32.781 45.5237 31.6788 45.7352 30.6153C45.9467 29.5519 46.4689 28.5751 47.2355 27.8084C48.0022 27.0417 48.979 26.5196 50.0425 26.3081C51.1059 26.0966 52.2081 26.2051 53.2099 26.6201C54.2116 27.035 55.0678 27.7376 55.6701 28.6392C56.2725 29.5407 56.594 30.6006 56.594 31.6848C56.5925 33.1383 56.0145 34.5318 54.9867 35.5596C53.9589 36.5873 52.5654 37.1654 51.112 37.1669Z" fill="#073388"/>
</svg>
