<svg width="24" height="24" viewBox="0 0 24 24" fill="none" xmlns="http://www.w3.org/2000/svg">
<path d="M2.49998 4H21.5C22.8807 4 24 5.11928 24 6.49998V17.5C24 18.8807 22.8807 20 21.5 20H2.49998C1.11928 20 0 18.8807 0 17.5V6.50003C0 5.11928 1.11928 4 2.49998 4Z" fill="#2969FF"/>
<path d="M0 7H24V11H0V7Z" fill="#FAFAFA"/>
<path d="M7.5 15H3.50002C3.22388 15 3 14.7762 3 14.5C3 14.2239 3.22388 14 3.50002 14H7.5C7.77614 14 8.00002 14.2239 8.00002 14.5C8.00002 14.7762 7.77614 15 7.5 15ZM10.5 17H3.50002C3.22388 17 3 16.7762 3 16.5C3 16.2239 3.22388 16 3.50002 16H10.5C10.7761 16 11 16.2239 11 16.5C11 16.7762 10.7761 17 10.5 17Z" fill="#FAFAFA"/>
</svg>
