<svg width="32" height="32" viewBox="0 0 32 32" fill="none" xmlns="http://www.w3.org/2000/svg">
<path d="M24.0002 16.6667C23.8234 16.6667 23.6538 16.5964 23.5288 16.4714C23.4037 16.3464 23.3335 16.1768 23.3335 16C23.3335 11.9567 20.0435 8.66667 16.0002 8.66667C14.8879 8.66451 13.7898 8.91677 12.79 9.40415C11.7901 9.89154 10.915 10.6011 10.2315 11.4787C10.1778 11.5486 10.1108 11.6071 10.0343 11.651C9.95784 11.6948 9.87343 11.723 9.78598 11.734C9.69853 11.745 9.60977 11.7385 9.52482 11.715C9.43988 11.6915 9.36045 11.6513 9.29113 11.5969C9.2218 11.5425 9.16395 11.4748 9.12094 11.3979C9.07792 11.321 9.05059 11.2363 9.04052 11.1487C9.03044 11.0612 9.03784 10.9725 9.06226 10.8878C9.08669 10.8031 9.12767 10.7241 9.18283 10.6553C9.99086 9.61857 11.0253 8.7803 12.207 8.20464C13.3887 7.62899 14.6864 7.33118 16.0008 7.334C20.7795 7.334 24.6675 11.222 24.6675 16.0007C24.6675 16.1775 24.5973 16.3471 24.4722 16.4721C24.3472 16.5971 24.1776 16.6673 24.0008 16.6673L24.0002 16.6667ZM8.00016 16.6667C7.82335 16.6667 7.65378 16.5964 7.52876 16.4714C7.40373 16.3464 7.3335 16.1768 7.3335 16C7.3335 15.0407 7.4915 14.0953 7.80283 13.19C7.83128 13.1072 7.87577 13.0308 7.93375 12.9652C7.99173 12.8995 8.06207 12.846 8.14075 12.8075C8.21944 12.7691 8.30492 12.7465 8.39232 12.7411C8.47973 12.7357 8.56734 12.7476 8.65016 12.776C8.73298 12.8045 8.80939 12.8489 8.87502 12.9069C8.94064 12.9649 8.99421 13.0352 9.03265 13.1139C9.07109 13.1926 9.09366 13.2781 9.09907 13.3655C9.10448 13.4529 9.09262 13.5405 9.06416 13.6233C8.8005 14.388 8.66621 15.1912 8.66683 16C8.66683 16.1768 8.59659 16.3464 8.47157 16.4714C8.34654 16.5964 8.17697 16.6667 8.00016 16.6667ZM19.9268 23.64C19.8166 23.64 19.7081 23.6127 19.6111 23.5605C19.514 23.5083 19.4314 23.4329 19.3706 23.3409C19.3099 23.249 19.2728 23.1434 19.2629 23.0337C19.2529 22.9239 19.2703 22.8134 19.3135 22.712C19.532 22.1964 19.7244 21.6702 19.8902 21.1353C19.9148 21.0502 19.9561 20.9709 20.0118 20.9019C20.0674 20.833 20.1363 20.7758 20.2143 20.7337C20.2923 20.6917 20.3779 20.6656 20.4661 20.6571C20.5543 20.6485 20.6433 20.6576 20.7279 20.6838C20.8126 20.7101 20.8911 20.7529 20.959 20.8099C21.0269 20.8668 21.0828 20.9367 21.1233 21.0155C21.1639 21.0943 21.1883 21.1804 21.1952 21.2687C21.2021 21.357 21.1913 21.4459 21.1635 21.53C20.9835 22.1107 20.7742 22.6833 20.5402 23.2333C20.489 23.3538 20.4035 23.4566 20.2943 23.5288C20.1851 23.601 20.0571 23.6394 19.9262 23.6393L19.9268 23.64Z" fill="#2969FF"/>
<path d="M21.1274 19.4C21.0315 19.4001 20.9366 19.3795 20.8494 19.3396C20.7621 19.2997 20.6845 19.2414 20.6219 19.1687C20.5592 19.0961 20.513 19.0107 20.4863 18.9186C20.4597 18.8264 20.4532 18.7296 20.4674 18.6347C20.6001 17.7487 20.6668 16.8627 20.6668 16C20.6668 13.4267 18.5734 11.3333 16.0001 11.3333H15.8734C15.6966 11.3333 15.527 11.2631 15.402 11.1381C15.277 11.013 15.2068 10.8435 15.2068 10.6667C15.2068 10.4899 15.277 10.3203 15.402 10.1953C15.527 10.0702 15.6966 10 15.8734 10H16.0001C19.3081 10 22.0001 12.692 22.0001 16C22.0001 16.9287 21.9281 17.8813 21.7861 18.832C21.7625 18.9898 21.683 19.134 21.5621 19.2382C21.4413 19.3424 21.287 19.3998 21.1274 19.4ZM9.25942 20.98C9.13645 20.9799 9.01591 20.9457 8.91114 20.8813C8.80637 20.817 8.72145 20.7249 8.66577 20.6152C8.61009 20.5056 8.58581 20.3827 8.59564 20.2601C8.60546 20.1375 8.64899 20.02 8.72142 19.9207C9.55489 18.7839 10.0027 17.4102 9.99942 16.0007C10.0025 14.9545 10.2779 13.9271 10.7985 13.0196C11.3191 12.1122 12.0671 11.356 12.9688 10.8253C13.1213 10.7359 13.3032 10.7107 13.4744 10.7553C13.6455 10.7999 13.792 10.9107 13.8814 11.0633C13.9709 11.2159 13.9961 11.3978 13.9514 11.569C13.9068 11.7401 13.796 11.8865 13.6434 11.976C12.9419 12.3884 12.3599 12.9764 11.9548 13.6822C11.5496 14.3879 11.3352 15.1869 11.3328 16.0007C11.3368 17.6932 10.799 19.3425 9.79808 20.7073C9.73609 20.7922 9.65492 20.8612 9.56119 20.9087C9.46746 20.9562 9.36383 20.9808 9.25875 20.9807L9.25942 20.98Z" fill="#2969FF"/>
<path d="M16.4195 24.6534C16.301 24.6533 16.1848 24.6215 16.0826 24.5615C15.9805 24.5015 15.8962 24.4154 15.8384 24.3119C15.7806 24.2085 15.7514 24.0916 15.7539 23.9731C15.7563 23.8547 15.7902 23.7391 15.8522 23.6381C17.26 21.3394 18.0035 18.6956 18.0002 16.0001C18.0002 14.8974 17.1028 14.0001 16.0002 14.0001C14.8975 14.0001 14.0002 14.8974 14.0002 16.0001C14.0002 16.2594 13.9928 16.5121 13.9708 16.7641C13.9653 16.8528 13.9421 16.9396 13.9026 17.0192C13.8631 17.0988 13.808 17.1698 13.7407 17.2278C13.6734 17.2859 13.5951 17.3299 13.5105 17.3572C13.4259 17.3846 13.3367 17.3947 13.2481 17.387C13.1595 17.3794 13.0734 17.3541 12.9947 17.3127C12.916 17.2712 12.8465 17.2145 12.7901 17.1457C12.7337 17.077 12.6916 16.9977 12.6663 16.9125C12.641 16.8272 12.633 16.7378 12.6428 16.6494C12.6615 16.4347 12.6668 16.2201 12.6668 16.0001C12.6668 14.1621 14.1622 12.6667 16.0002 12.6667C17.8382 12.6667 19.3335 14.1621 19.3335 16.0001C19.3335 18.9541 18.5228 21.8361 16.9882 24.3354C16.9287 24.4328 16.8451 24.5132 16.7455 24.5689C16.6459 24.6246 16.5336 24.6537 16.4195 24.6534ZM11.1195 23.0067C11.006 23.0066 10.8944 22.9774 10.7952 22.922C10.6961 22.8666 10.6128 22.7868 10.5532 22.6902C10.4936 22.5936 10.4596 22.4833 10.4545 22.3699C10.4494 22.2565 10.4734 22.1436 10.5242 22.0421C10.6062 21.8787 10.7022 21.7234 10.8108 21.5821C11.3809 20.8308 11.8284 19.994 12.1368 19.1027C12.1636 19.0178 12.2072 18.9392 12.2649 18.8714C12.3226 18.8036 12.3933 18.748 12.4728 18.708C12.5523 18.6679 12.639 18.6442 12.7279 18.6383C12.8167 18.6323 12.9058 18.6442 12.99 18.6732C13.0742 18.7022 13.1517 18.7478 13.2179 18.8073C13.2842 18.8668 13.3378 18.9389 13.3758 19.0195C13.4137 19.1 13.4351 19.1874 13.4387 19.2763C13.4423 19.3653 13.4281 19.454 13.3968 19.5374C13.042 20.5624 12.5272 21.5247 11.8715 22.3887C11.8123 22.4669 11.7605 22.5503 11.7168 22.6381C11.6615 22.7491 11.5762 22.8424 11.4707 22.9075C11.3651 22.9726 11.2435 23.007 11.1195 23.0067Z" fill="#2969FF"/>
<path d="M13.4727 24.2534C13.349 24.2533 13.2277 24.2187 13.1225 24.1536C13.0173 24.0884 12.9323 23.9953 12.877 23.8846C12.8217 23.7739 12.7983 23.65 12.8095 23.5267C12.8206 23.4035 12.8658 23.2857 12.9401 23.1867C14.5008 21.1169 15.3414 18.5931 15.3334 16.0007C15.3334 15.8239 15.4037 15.6544 15.5287 15.5293C15.6537 15.4043 15.8233 15.3341 16.0001 15.3341C16.1769 15.3341 16.3465 15.4043 16.4715 15.5293C16.5965 15.6544 16.6667 15.8239 16.6667 16.0007C16.6667 18.9074 15.7467 21.6694 14.0067 23.9874C13.9446 24.0703 13.8639 24.1374 13.7712 24.1836C13.6785 24.2298 13.5763 24.2537 13.4727 24.2534ZM3.33341 9.33341C3.1566 9.33341 2.98703 9.26318 2.86201 9.13815C2.73699 9.01313 2.66675 8.84356 2.66675 8.66675V6.00008C2.66675 4.16208 4.16208 2.66675 6.00008 2.66675H8.66675C8.84356 2.66675 9.01313 2.73699 9.13815 2.86201C9.26318 2.98703 9.33341 3.1566 9.33341 3.33341C9.33341 3.51023 9.26318 3.67979 9.13815 3.80482C9.01313 3.92984 8.84356 4.00008 8.66675 4.00008H6.00008C4.89741 4.00008 4.00008 4.89741 4.00008 6.00008V8.66675C4.00008 8.84356 3.92984 9.01313 3.80482 9.13815C3.67979 9.26318 3.51023 9.33341 3.33341 9.33341ZM28.6667 9.33341C28.4899 9.33341 28.3204 9.26318 28.1953 9.13815C28.0703 9.01313 28.0001 8.84356 28.0001 8.66675V6.00008C28.0001 4.89741 27.1027 4.00008 26.0001 4.00008H23.3334C23.1566 4.00008 22.987 3.92984 22.862 3.80482C22.737 3.67979 22.6667 3.51023 22.6667 3.33341C22.6667 3.1566 22.737 2.98703 22.862 2.86201C22.987 2.73699 23.1566 2.66675 23.3334 2.66675H26.0001C27.8381 2.66675 29.3334 4.16208 29.3334 6.00008V8.66675C29.3334 8.84356 29.2632 9.01313 29.1382 9.13815C29.0131 9.26318 28.8436 9.33341 28.6667 9.33341ZM26.0001 29.3334H23.3334C23.1566 29.3334 22.987 29.2632 22.862 29.1382C22.737 29.0131 22.6667 28.8436 22.6667 28.6667C22.6667 28.4899 22.737 28.3204 22.862 28.1953C22.987 28.0703 23.1566 28.0001 23.3334 28.0001H26.0001C27.1027 28.0001 28.0001 27.1027 28.0001 26.0001V23.3334C28.0001 23.1566 28.0703 22.987 28.1953 22.862C28.3204 22.737 28.4899 22.6667 28.6667 22.6667C28.8436 22.6667 29.0131 22.737 29.1382 22.862C29.2632 22.987 29.3334 23.1566 29.3334 23.3334V26.0001C29.3334 27.8381 27.8381 29.3334 26.0001 29.3334ZM8.66675 29.3334H6.00008C4.16208 29.3334 2.66675 27.8381 2.66675 26.0001V23.3334C2.66675 23.1566 2.73699 22.987 2.86201 22.862C2.98703 22.737 3.1566 22.6667 3.33341 22.6667C3.51023 22.6667 3.67979 22.737 3.80482 22.862C3.92984 22.987 4.00008 23.1566 4.00008 23.3334V26.0001C4.00008 27.1027 4.89741 28.0001 6.00008 28.0001H8.66675C8.84356 28.0001 9.01313 28.0703 9.13815 28.1953C9.26318 28.3204 9.33341 28.4899 9.33341 28.6667C9.33341 28.8436 9.26318 29.0131 9.13815 29.1382C9.01313 29.2632 8.84356 29.3334 8.66675 29.3334Z" fill="#2969FF"/>
</svg>
