<svg width="34" height="16" viewBox="0 0 34 16" fill="none" xmlns="http://www.w3.org/2000/svg">
<g clip-path="url(#clip0_13191_19721)">
<path d="M16.065 8.27306V12.1786H14.79V2.51978H18.105C18.9125 2.51978 19.6775 2.81374 20.2725 3.35967C20.8675 3.86361 21.165 4.61951 21.165 5.41741C21.165 6.21531 20.8675 6.92922 20.2725 7.47516C19.6775 8.02109 18.955 8.31505 18.105 8.31505L16.065 8.27306ZM16.065 3.69563V7.05521H18.19C18.6575 7.05521 19.125 6.88723 19.4225 6.55127C20.1025 5.92135 20.1025 4.87148 19.465 4.24156L19.4225 4.19957C19.0825 3.86361 18.6575 3.65363 18.19 3.69563H16.065Z" fill="#5F6368"/>
<path d="M24.0975 5.37524C25.0325 5.37524 25.755 5.62721 26.3075 6.13115C26.86 6.63509 27.115 7.307 27.115 8.1469V12.1784H25.925V11.2545H25.8825C25.3725 12.0104 24.65 12.3884 23.8 12.3884C23.0775 12.3884 22.44 12.1784 21.93 11.7584C21.4625 11.3385 21.165 10.7506 21.165 10.1207C21.165 9.44874 21.42 8.9028 21.93 8.48286C22.44 8.06291 23.1625 7.89493 24.0125 7.89493C24.7775 7.89493 25.3725 8.02091 25.84 8.31488V8.02091C25.84 7.60097 25.67 7.18102 25.33 6.92905C24.99 6.63509 24.565 6.46711 24.0975 6.46711C23.375 6.46711 22.8225 6.76107 22.44 7.349L21.335 6.67708C22.015 5.79519 22.9075 5.37524 24.0975 5.37524ZM22.4825 10.1626C22.4825 10.4986 22.6525 10.7926 22.9075 10.9605C23.205 11.1705 23.545 11.2965 23.885 11.2965C24.395 11.2965 24.905 11.0865 25.2875 10.7086C25.7125 10.3306 25.925 9.86868 25.925 9.36475C25.5425 9.07078 24.99 8.9028 24.2675 8.9028C23.7575 8.9028 23.3325 9.02879 22.9925 9.28076C22.6525 9.49073 22.4825 9.78469 22.4825 10.1626Z" fill="#5F6368"/>
<path d="M33.9996 5.58521L29.7921 15.118H28.5171L30.0896 11.8004L27.3271 5.6272H28.6871L30.6846 10.3726H30.7271L32.6821 5.6272H33.9996V5.58521Z" fill="#5F6368"/>
<path d="M11.0079 7.43318C11.0079 7.05522 10.9654 6.67727 10.9229 6.29932H5.61035V8.44105H8.62785C8.50035 9.11297 8.11785 9.74289 7.52285 10.1208V11.5067H9.35035C10.4129 10.5408 11.0079 9.11297 11.0079 7.43318Z" fill="#4285F4"/>
<path d="M5.60973 12.8504C7.13973 12.8504 8.41473 12.3464 9.34973 11.5065L7.52223 10.1207C7.01223 10.4567 6.37473 10.6666 5.60973 10.6666C4.16473 10.6666 2.88973 9.70077 2.46473 8.35693H0.594727V9.78475C1.57223 11.6745 3.48473 12.8504 5.60973 12.8504Z" fill="#34A853"/>
<path d="M2.46488 8.35691C2.20988 7.68499 2.20988 6.92909 2.46488 6.21518V4.78735H0.594883C-0.212617 6.34116 -0.212617 8.18893 0.594883 9.78473L2.46488 8.35691Z" fill="#FBBC04"/>
<path d="M5.6102 3.94746C6.4177 3.94746 7.1827 4.24142 7.7777 4.78736L9.3927 3.19156C8.3727 2.26767 7.0127 1.72174 5.6527 1.76373C3.5277 1.76373 1.5727 2.93959 0.637695 4.82935L2.5077 6.25717C2.8902 4.91334 4.1652 3.94746 5.6102 3.94746Z" fill="#EA4335"/>
</g>
<defs>
<clipPath id="clip0_13191_19721">
<rect width="34" height="16" fill="white"/>
</clipPath>
</defs>
</svg>
