<svg width="86" height="86" viewBox="0 0 86 86" fill="none" xmlns="http://www.w3.org/2000/svg">
<path d="M80.0251 43.181C80.0251 47.6168 76.223 51.2379 72.1493 52.6863C68.0757 54.1347 63.5493 54.0442 59.2041 54.4968C54.8588 54.8589 49.7893 58.9326 46.7114 62.101C44.7199 64.1831 43.7241 66.9894 42.2757 69.5242C40.8272 72.0589 38.8357 74.5031 36.0293 75.1368C32.9514 75.7705 29.783 73.7789 27.9725 71.2442C26.162 68.6189 25.3472 65.4505 24.442 62.3726C23.5367 59.2947 23.0841 53.2294 20.9114 50.8758C19.0104 48.8842 16.4757 47.6168 14.0314 46.3494C11.5872 45.0821 9.05249 43.7242 7.51355 41.461C5.88407 39.1979 5.43144 35.9389 7.15144 33.7663C9.32407 31.0505 13.3072 31.4126 16.7472 31.141C23.1746 30.5979 29.1493 26.7052 32.4083 21.1831C33.5851 19.101 34.3999 16.8379 35.7578 14.7558C37.1157 12.7642 39.0167 10.9537 41.4609 10.6821C44.8104 10.32 47.6167 13.0358 49.9704 15.48C54.4062 20.1873 58.6609 26.1621 64.4546 29.24C70.0672 32.3179 80.0251 35.0337 80.0251 43.181ZM8.14723 19.2821C8.32828 19.6442 8.14723 20.0063 7.78513 20.1873L6.87986 20.5494L7.24197 21.4547C7.42302 21.8168 7.24197 22.1789 6.87986 22.2694C6.51776 22.36 6.15565 22.2695 6.06513 21.9073L5.70302 21.0021L4.79776 21.3642C4.43565 21.5452 4.07355 21.3642 3.98302 21.0021C3.89249 20.64 3.98302 20.2779 4.34513 20.1873L5.25039 19.8252L4.88828 18.92C4.79776 18.5579 4.88828 18.1958 5.25039 18.1052C5.61249 17.9242 5.9746 18.1052 6.15565 18.4673L6.51776 19.3726L7.42302 19.0105C7.60407 18.8294 7.96618 19.0105 8.14723 19.2821ZM6.24618 46.5305C6.42723 46.8926 6.24618 47.2547 5.88407 47.4358L4.97881 47.7979L5.34091 48.7031C5.52197 49.0652 5.34091 49.4273 4.97881 49.5179C4.6167 49.6084 4.2546 49.5179 4.16407 49.1558L3.80197 48.2505L2.8967 48.6126C2.5346 48.7937 2.17249 48.6126 2.08197 48.2505C1.99144 47.8884 2.08197 47.5263 2.44407 47.4358L3.34934 47.0737L2.98723 46.1684C2.8967 45.8063 2.98723 45.4442 3.34934 45.3537C3.71144 45.1726 4.07355 45.3537 4.2546 45.7158L4.6167 46.621L5.52197 46.2589C5.70302 45.9873 6.06513 46.1684 6.24618 46.5305Z" fill="#E8F0FD"/>
<path d="M50.9665 18.6482V64.7261C50.9665 66.4461 49.6086 67.804 47.8886 67.804H18.0149C16.2949 67.804 14.937 66.4461 14.937 64.7261V18.6482C14.937 16.9282 16.2949 15.5703 18.0149 15.5703H47.8886C49.5181 15.5703 50.9665 16.9282 50.9665 18.6482Z" fill="white"/>
<path d="M50.9665 18.6482V64.7261C50.9665 66.4461 49.6086 67.804 47.8886 67.804H43.3623C45.0823 67.804 46.4402 66.4461 46.4402 64.7261V18.6482C46.4402 16.9282 45.0823 15.5703 43.3623 15.5703H47.8886C49.5181 15.5703 50.9665 16.9282 50.9665 18.6482Z" fill="#E8F0FD"/>
<path d="M50.9663 26.8862V56.3978H30.3263C27.52 56.3978 25.2568 54.1347 25.2568 51.3283V32.0462C25.2568 29.2399 27.52 26.9768 30.3263 26.9768H50.9663V26.8862Z" fill="#CEDBF0" fill-opacity="0.19"/>
<path d="M66.3558 32.0465V51.3286C66.3558 52.6865 65.2695 53.6822 64.0021 53.6822H30.3263C29.059 53.6822 27.9727 52.5959 27.9727 51.3286V32.0465C27.9727 30.6886 29.059 29.6928 30.3263 29.6928H64.0021C65.2695 29.6022 66.3558 30.6886 66.3558 32.0465Z" fill="white"/>
<path d="M66.3558 32.0465V51.3286C66.3558 52.6865 65.2695 53.6822 64.0021 53.6822H61.1958C62.5537 53.6822 63.5495 52.5959 63.5495 51.3286V32.0465C63.5495 30.6886 62.4632 29.6928 61.1958 29.6928H64.0021C65.2695 29.6022 66.3558 30.6886 66.3558 32.0465Z" fill="#E8F0FD"/>
<path d="M66.356 40.4654V51.3286C66.356 52.6865 65.2697 53.6823 64.0023 53.6823H55.855C55.3118 52.5054 54.9497 51.1475 54.9497 49.6991C54.9497 44.4486 59.2044 40.1938 64.455 40.1938C65.0887 40.2844 65.7223 40.2844 66.356 40.4654Z" fill="#CEDBF0" fill-opacity="0.19"/>
<path d="M62.3726 43.9958C62.3726 44.5389 61.9199 44.9916 61.3768 44.9916H46.5305C45.9873 44.9916 45.5347 44.5389 45.5347 43.9958C45.5347 43.4526 45.9873 43 46.5305 43H61.2862C61.9199 43 62.3726 43.4526 62.3726 43.9958ZM62.3726 48.7031C62.3726 49.2463 61.9199 49.6989 61.3768 49.6989H53.2294C52.6862 49.6989 52.2336 49.2463 52.2336 48.7031C52.2336 48.16 52.6862 47.7074 53.2294 47.7074H61.3768C61.9199 47.7074 62.3726 48.16 62.3726 48.7031ZM62.3726 39.2884C62.3726 39.8316 61.9199 40.2842 61.3768 40.2842H57.9368C57.3936 40.2842 56.941 39.8316 56.941 39.2884C56.941 38.7453 57.3936 38.2926 57.9368 38.2926H61.3768C61.9199 38.3831 62.3726 38.7453 62.3726 39.2884ZM45.6252 34.6716C45.6252 34.1284 46.0778 33.6758 46.621 33.6758H61.3768C61.9199 33.6758 62.3726 34.1284 62.3726 34.6716C62.3726 35.2147 61.9199 35.6674 61.3768 35.6674H46.5305C45.9873 35.6674 45.6252 35.2147 45.6252 34.6716ZM45.6252 39.2884C45.6252 38.7453 46.0778 38.2926 46.621 38.2926H53.4105C53.9536 38.2926 54.4062 38.7453 54.4062 39.2884C54.4062 39.8316 53.9536 40.2842 53.4105 40.2842H46.5305C45.9873 40.2842 45.6252 39.9221 45.6252 39.2884ZM49.7894 48.7031C49.7894 49.2463 49.3368 49.6989 48.7936 49.6989H46.5305C45.9873 49.6989 45.5347 49.2463 45.5347 48.7031C45.5347 48.16 45.9873 47.7074 46.5305 47.7074H48.7936C49.3368 47.7074 49.7894 48.16 49.7894 48.7031Z" fill="#E8F0FD"/>
<path d="M71.0633 49.6991C71.0633 53.4107 68.076 56.4886 64.2738 56.4886C60.5623 56.4886 57.4844 53.5012 57.4844 49.6991C57.4844 45.9876 60.4717 42.9097 64.2738 42.9097C68.076 43.0002 71.0633 45.9876 71.0633 49.6991Z" fill="white"/>
<path d="M71.0633 49.6991C71.0633 53.4107 68.0759 56.4886 64.2738 56.4886C63.9117 56.4886 63.5496 56.4886 63.1875 56.3981C66.3559 55.8549 68.8001 53.1391 68.8001 49.6991C68.8001 46.2591 66.3559 43.5434 63.1875 43.0002C63.5496 42.9097 63.9117 42.9097 64.2738 42.9097C68.0759 43.0002 71.0633 45.9876 71.0633 49.6991Z" fill="#E8F0FD"/>
<path d="M77.7621 21.1828H78.7579V22.1786C78.7579 22.5407 79.0295 22.8122 79.3916 22.9028C79.7537 22.9028 80.0253 22.6312 80.1158 22.2691V21.2733H81.1116C81.4737 21.2733 81.7453 21.0017 81.8358 20.6396C81.8358 20.2775 81.5642 20.0059 81.2021 19.9154H80.2063V18.9196C80.2063 18.5575 79.9348 18.2859 79.5726 18.1954C79.2105 18.1954 78.939 18.467 78.8484 18.8291V19.8249L77.8526 19.9154C77.4905 19.9154 77.219 20.187 77.1284 20.5491C77.1284 20.9112 77.4 21.1828 77.7621 21.1828ZM62.9158 71.6059H61.92V70.6101C61.92 70.248 61.6484 69.9765 61.1958 69.9765C60.8337 69.9765 60.5621 70.248 60.5621 70.6101V71.6059H59.5663C59.2042 71.6059 58.9326 71.8775 58.9326 72.2396C58.9326 72.6017 59.2042 72.8733 59.5663 72.8733H60.5621V73.8691C60.5621 74.2312 60.8337 74.5028 61.1958 74.5028C61.5579 74.5028 61.8295 74.2312 61.8295 73.8691V72.8733H62.8253C63.1874 72.8733 63.459 72.6017 63.459 72.1491C63.5495 71.8775 63.2779 71.6059 62.9158 71.6059ZM83.7369 66.8986H63.5495C63.0063 66.8986 62.6442 67.2607 62.6442 67.8038C62.6442 68.347 63.0063 68.7091 63.5495 68.7091H83.7369C84.28 68.7091 84.6421 68.347 84.6421 67.8038C84.6421 67.2607 84.28 66.8986 83.7369 66.8986ZM4.88844 66.8986H2.26317C1.72002 66.8986 1.35791 67.2607 1.35791 67.8038C1.35791 68.347 1.72002 68.7091 2.26317 68.7091H4.88844C5.43159 68.7091 5.7937 68.347 5.7937 67.8038C5.7937 67.2607 5.43159 66.8986 4.88844 66.8986ZM32.9516 66.0838C33.7663 66.0838 34.4905 65.4501 34.4905 64.5449C34.4905 63.6396 33.8569 63.0059 32.9516 63.0059C32.0463 63.0059 31.4126 63.6396 31.4126 64.5449C31.4126 65.4501 32.0463 66.0838 32.9516 66.0838ZM37.9305 17.9238H32.499C31.9558 17.9238 31.5937 18.2859 31.5937 18.8291C31.5937 19.2817 31.9558 19.7344 32.499 19.7344H37.9305C38.3832 19.7344 38.8358 19.3722 38.8358 18.8291C38.8358 18.2859 38.4737 17.9238 37.9305 17.9238ZM28.9684 17.9238H27.8821C27.4295 17.9238 26.9769 18.2859 26.9769 18.8291C26.9769 19.2817 27.339 19.7344 27.8821 19.7344H28.9684C29.4211 19.7344 29.8737 19.3722 29.8737 18.8291C29.8737 18.2859 29.4211 17.9238 28.9684 17.9238ZM38.2926 48.4312C40.2842 48.4312 42.0947 47.707 43.4526 46.5301C43.7242 46.3491 43.8148 45.8965 43.6337 45.6249C43 44.3575 41.9137 43.3617 40.6463 42.8186C41.8232 42.0944 42.5474 40.7365 42.5474 39.288C42.5474 36.7533 40.3748 34.7617 37.84 35.0333C36.0295 35.2144 34.4 36.7533 34.1284 38.5638C33.8569 40.2838 34.6716 41.9133 35.939 42.8186C34.6716 43.3617 33.5853 44.3575 32.9516 45.6249C32.7705 45.8965 32.8611 46.3491 33.1326 46.5301C34.4905 47.707 36.3011 48.4312 38.2926 48.4312Z" fill="#1369F0"/>
<path d="M67.261 42.6377V32.0461C67.261 30.2356 65.8126 28.7871 64.002 28.7871H51.8715V18.6482C51.8715 16.4756 50.061 14.665 47.8883 14.665H18.0147C15.842 14.665 14.0315 16.4756 14.0315 18.6482V64.7261C14.0315 65.5408 14.3031 66.265 14.6652 66.8987H11.4062C10.8631 66.8987 10.501 67.3514 10.501 67.804C10.501 68.3471 10.8631 68.7093 11.4062 68.7093H55.1305C55.6736 68.7093 56.0357 68.3471 56.0357 67.804C56.0357 67.3514 55.6736 66.8987 55.1305 66.8987H51.2378C51.6905 66.265 51.8715 65.5408 51.8715 64.7261V54.5871H58.5704C60.0189 56.2166 62.101 57.3029 64.4547 57.3029C68.7094 57.3029 72.1494 53.8629 72.1494 49.6987C72.0589 46.5303 70.0673 43.8145 67.261 42.6377ZM15.842 18.6482C15.842 17.4714 16.8378 16.4756 18.0147 16.4756H47.8883C49.0652 16.4756 50.061 17.4714 50.061 18.6482V21.1829H15.842V18.6482ZM50.061 64.7261C50.061 65.9029 49.0652 66.8987 47.8883 66.8987H18.0147C16.8378 66.8987 15.842 65.9029 15.842 64.7261V62.1914H50.061V64.7261ZM50.061 60.3808H15.842V22.9935H50.061V28.7871H30.3262C28.5157 28.7871 27.0673 30.2356 27.0673 32.0461V51.3282C27.0673 53.1387 28.5157 54.5871 30.3262 54.5871H50.061V60.3808ZM57.3936 52.7766H30.3262C29.5115 52.7766 28.8778 52.1429 28.8778 51.3282V32.0461C28.8778 31.2314 29.5115 30.5977 30.3262 30.5977H64.002C64.8168 30.5977 65.4505 31.2314 65.4505 32.0461V42.185C65.0884 42.0945 64.7262 42.0945 64.3641 42.0945C60.1094 42.0945 56.7599 45.5345 56.7599 49.7892C56.6694 50.785 56.941 51.8714 57.3936 52.7766ZM64.3641 55.5829C61.1052 55.5829 58.5704 52.9577 58.5704 49.7892C58.5704 46.5303 61.1957 43.905 64.3641 43.905C67.6231 43.905 70.2483 46.5303 70.2483 49.7892C70.2483 52.9577 67.6231 55.5829 64.3641 55.5829Z" fill="#1369F0"/>
<path d="M61.739 49.6082C61.4674 49.3367 61.0148 49.3367 60.7432 49.6082C60.4717 49.8798 60.4717 50.3325 60.7432 50.604L62.5538 52.4146C62.7348 52.5051 62.8253 52.5956 63.0064 52.5956C63.1874 52.5956 63.3685 52.5051 63.459 52.4146L67.8948 47.9788C68.1664 47.7072 68.1664 47.2546 67.8948 46.983C67.6232 46.7114 67.1706 46.7114 66.899 46.983L63.0064 50.8756L61.739 49.6082Z" fill="#1369F0"/>
</svg>
