<svg width="19" height="18" viewBox="0 0 19 18" fill="none" xmlns="http://www.w3.org/2000/svg">
<path d="M12.2996 4.81543H12.3116" stroke="#A19FA0" stroke-width="1.43948" stroke-linecap="round" stroke-linejoin="round"/>
<path d="M1.19604 11.8814L5.23331 7.84412C5.63071 7.43063 6.1744 7.18945 6.74764 7.17236C7.32089 7.18945 7.86458 7.43063 8.26198 7.84412L13.3088 12.8909" stroke="#A19FA0" stroke-width="1.43948" stroke-linecap="round" stroke-linejoin="round"/>
<path d="M11.2893 10.8734L12.2989 9.86382C12.4896 9.65102 12.723 9.4808 12.9839 9.36426C13.2449 9.24773 13.5274 9.1875 13.8132 9.1875C14.099 9.1875 14.3815 9.24773 14.6424 9.36426C14.9034 9.4808 15.1368 9.65102 15.3275 9.86382L17.3428 11.8791" stroke="#A19FA0" stroke-width="1.43948" stroke-linecap="round" stroke-linejoin="round"/>
<path d="M14.3184 0.77832H4.22471C3.42146 0.77832 2.65111 1.09741 2.08312 1.6654C1.51514 2.23338 1.19605 3.00374 1.19605 3.80699V13.9006C1.19592 14.2984 1.27417 14.6923 1.42633 15.0598C1.57849 15.4273 1.80158 15.7612 2.08284 16.0425C2.3641 16.3238 2.69803 16.5469 3.06554 16.699C3.43306 16.8512 3.82695 16.9294 4.22471 16.9293H14.3184C14.7161 16.9294 15.11 16.8512 15.4775 16.699C15.845 16.5469 16.179 16.3238 16.4602 16.0425C16.7415 15.7612 16.9646 15.4273 17.1167 15.0598C17.2689 14.6923 17.3472 14.2984 17.347 13.9006V3.80699C17.3472 3.40922 17.2689 3.01533 17.1167 2.64782C16.9646 2.28031 16.7415 1.94638 16.4602 1.66512C16.179 1.38385 15.845 1.16077 15.4775 1.00861C15.11 0.856447 14.7161 0.778194 14.3184 0.77832V0.77832Z" stroke="#A19FA0" stroke-width="1.43948" stroke-linecap="round" stroke-linejoin="round"/>
</svg>
