<svg width="164" height="94" viewBox="0 0 164 94" fill="none" xmlns="http://www.w3.org/2000/svg">
<g clip-path="url(#clip0_13191_19315)">
<path d="M114.811 7.52979C112.041 1.59979 105.211 -1.45021 98.851 0.669792C96.501 1.44979 94.531 2.84979 93.041 4.60979C108.021 14.0998 113.781 8.74979 114.811 7.52979Z" fill="white"/>
<path d="M92.8309 4.84961C92.1709 5.65961 91.6109 6.54961 91.1709 7.49961C92.0109 9.36961 98.4009 22.1096 114.231 19.7196C115.081 18.2796 115.651 16.6796 115.901 15.0196C103.851 16.9796 95.1009 7.59961 92.8309 4.84961Z" fill="white"/>
<path d="M90.0107 14.7397C90.1207 15.5697 90.3007 16.3897 90.5707 17.2097C92.8507 24.0597 100.251 27.7597 107.101 25.4797C110.091 24.4897 112.471 22.5197 114.031 20.0497C110.151 21.2397 99.7807 23.2397 90.0107 14.7397Z" fill="white"/>
<path d="M111.23 28.2697C110.35 28.7497 109.42 29.1597 108.44 29.4797C99.3803 32.4997 89.5804 27.5997 86.5704 18.5397C86.3904 17.9897 86.2404 17.4397 86.1104 16.8897C85.1004 20.7397 85.6104 23.6397 85.6104 23.6397C86.2204 23.8997 80.1504 23.1297 82.1704 11.2797C82.9104 6.95969 80.1004 2.92969 76.3304 2.92969H62.7404L51.3604 45.7097H60.0904C64.5604 45.7097 68.6004 43.8197 71.6804 40.5397C63.1804 32.3597 61.9204 22.2397 62.2704 15.4697C63.1904 24.9097 67.4204 36.6797 82.3604 39.5997C82.3604 39.5997 81.1504 44.0497 76.9204 46.5897C102.83 46.7797 111.25 28.2697 111.25 28.2697C111.24 28.2697 111.23 28.2697 111.23 28.2697Z" fill="white"/>
<path d="M29.9399 58.04L24.9499 85.51H19.1999L9.58992 66.68L6.16992 85.51H0.419922L5.40992 58.04H11.1599L20.7599 76.91L24.1899 58.04H29.9399Z" fill="white"/>
<path d="M39.2599 85.8599C32.6399 85.8599 28.6399 81.4599 29.8799 74.6199C31.1299 67.7399 36.6099 63.3799 43.3499 63.3799C49.9299 63.3799 53.7899 67.6599 52.6099 74.1499C52.4799 74.8599 52.3099 75.5699 52.0599 76.2699H35.4099C35.1099 79.4899 37.0799 81.2999 39.9599 81.2999C42.4299 81.2999 43.9999 80.1199 44.9999 78.6699H51.2099C49.2499 82.6799 44.8899 85.8599 39.2599 85.8599ZM36.1299 72.5799H46.9399C47.3799 69.7099 45.3199 67.8999 42.3699 67.8999C39.6099 67.8999 37.1199 69.5899 36.1299 72.5799Z" fill="white"/>
<path d="M58.6103 56.4199H64.3603L59.0703 85.5099H53.3203L58.6103 56.4199Z" fill="white"/>
<path d="M67.6103 56.4199H73.3603L68.0703 85.5099H62.3203L67.6103 56.4199Z" fill="white"/>
<path d="M81.1795 85.8601C75.4695 85.8601 72.0595 82.6801 72.5495 78.6301H78.3395C78.2495 80.2801 79.6195 81.5401 81.9195 81.5401C84.1795 81.5401 85.5895 80.5601 85.8195 79.3001C86.5295 75.4101 73.2195 77.8901 74.6695 69.9101C75.3295 66.2901 79.2195 63.3901 84.8495 63.3901C90.3595 63.3901 93.1595 66.2601 92.7095 70.5801H87.1995C87.3395 68.8901 86.1495 67.7501 83.8895 67.7501C81.7495 67.7501 80.4895 68.5801 80.2695 69.8301C79.5495 73.8001 92.6095 71.3201 91.3295 79.3001C90.6495 83.0301 86.7195 85.8601 81.1795 85.8601Z" fill="white"/>
<path d="M105.26 73.8H99.47L97.34 85.51H94.46L99.45 58.04H108.12C114.78 58.04 117.2 61.42 116.38 65.94C115.58 70.38 112 73.8 105.26 73.8ZM105.69 71.44C110.54 71.44 112.82 69.32 113.43 65.94C114.07 62.4 112.55 60.36 107.7 60.36H101.91L99.9 71.44H105.69Z" fill="white"/>
<path d="M128.33 63.7397C132.85 63.7397 135.51 66.0597 136.29 68.7697L137.15 64.0497H140.03L136.13 85.5097H133.25L134.11 80.7497C132.3 83.4997 128.75 85.8197 124.27 85.8197C118.15 85.8197 114.38 81.4597 115.6 74.7397C116.83 68.0197 122.17 63.7397 128.33 63.7397ZM128.43 66.1297C123.71 66.1297 119.52 69.2697 118.52 74.7397C117.53 80.1597 120.56 83.4297 125.28 83.4297C129.88 83.4297 134.22 80.1297 135.19 74.7797C136.17 69.4297 133.03 66.1297 128.43 66.1297Z" fill="white"/>
<path d="M160.67 64.0498H163.63L146.14 93.1198H143.14L147.79 85.3898L142.46 64.0498H145.62L149.94 82.3698L160.67 64.0498Z" fill="white"/>
</g>
<defs>
<clipPath id="clip0_13191_19315">
<rect width="163.21" height="93.12" fill="white" transform="translate(0.419922)"/>
</clipPath>
</defs>
</svg>
