<svg width="53" height="32" viewBox="0 0 53 32" fill="none" xmlns="http://www.w3.org/2000/svg">
<path fill-rule="evenodd" clip-rule="evenodd" d="M26.0756 28.1778C23.3138 30.5612 19.7312 32 15.8164 32C7.08124 32 0 24.8366 0 16C0 7.16344 7.08124 0 15.8164 0C19.7312 0 23.3138 1.43879 26.0756 3.82216C28.8375 1.43879 32.4201 0 36.3349 0C45.0701 0 52.1513 7.16344 52.1513 16C52.1513 24.8366 45.0701 32 36.3349 32C32.4201 32 28.8375 30.5612 26.0756 28.1778Z" fill="#ED0006"/>
<path fill-rule="evenodd" clip-rule="evenodd" d="M26.0752 28.1781C29.4759 25.2434 31.6323 20.8766 31.6323 16.0002C31.6323 11.1239 29.4759 6.7571 26.0752 3.8224C28.8371 1.43903 32.4197 0.000244141 36.3344 0.000244141C45.0696 0.000244141 52.1508 7.16369 52.1508 16.0002C52.1508 24.8368 45.0696 32.0002 36.3344 32.0002C32.4197 32.0002 28.8371 30.5615 26.0752 28.1781Z" fill="#F9A000"/>
<path fill-rule="evenodd" clip-rule="evenodd" d="M26.0756 28.1778C29.4763 25.2431 31.6327 20.8763 31.6327 16C31.6327 11.1238 29.4763 6.75696 26.0756 3.82227C22.6749 6.75696 20.5186 11.1238 20.5186 16C20.5186 20.8763 22.6749 25.2431 26.0756 28.1778Z" fill="#FF5E00"/>
</svg>
