<svg width="150" height="30" viewBox="0 0 150 30" fill="none" xmlns="http://www.w3.org/2000/svg">
<g clip-path="url(#clip0_1_4181)">
<path d="M68.2247 7.21191L64.3697 24.0452H60.8415L55.5 12.5391L52.8601 24.0761H49.332L53.187 7.24895H56.7151L62.0505 18.7798L64.6966 7.21809H68.2247V7.21191Z" fill="black"/>
<path d="M73.1283 24.2429C69.0759 24.2553 66.7444 21.5639 67.7004 17.3725C68.6565 13.1812 72.1476 10.4775 76.2801 10.4651C80.3078 10.4528 82.553 13.0701 81.6463 17.0454C81.5476 17.4775 81.4243 17.9096 81.2454 18.3478L71.0435 18.3725C70.7659 20.3478 71.9255 21.4528 73.6896 21.4466C75.2007 21.4466 76.1999 20.7182 76.8538 19.8232L80.6594 19.8108C79.3395 22.2676 76.5762 24.2244 73.1283 24.2367V24.2429ZM71.5924 16.1071L78.2169 16.0886C78.5685 14.3293 77.3595 13.2244 75.5461 13.2306C73.8561 13.2306 72.2894 14.2738 71.5924 16.1071Z" fill="black"/>
<path d="M85.8405 6.18115H89.3687L85.2854 23.996H81.7573L85.8405 6.18115Z" fill="black"/>
<path d="M91.3611 6.1626H94.8892L90.8059 23.9774H87.2778L91.3611 6.1626Z" fill="black"/>
<path d="M98.8243 24.1749C95.3208 24.1811 93.3286 22.2367 93.7418 19.7614H97.2946C97.1897 20.7614 97.9978 21.533 99.4041 21.5268C100.792 21.5268 101.68 20.9219 101.859 20.1503C102.408 17.7675 94.1736 19.3046 95.2962 14.4157C95.8019 12.1996 98.2753 10.4095 101.729 10.4033C105.103 10.3972 106.744 12.1502 106.337 14.7984H102.963C103.099 13.7737 102.402 13.0762 101.02 13.0762C99.7125 13.0762 98.9168 13.5885 98.7379 14.3601C98.1828 16.7922 106.263 15.2552 105.245 20.1441C104.721 22.4342 102.235 24.1688 98.8304 24.1811L98.8243 24.1749Z" fill="black"/>
<path d="M113.936 16.7492H110.383L108.743 23.9344H106.979L110.834 7.10102L116.15 7.08868C120.234 7.07633 121.621 9.14423 120.986 11.9158C120.363 14.6381 118.069 16.7368 113.936 16.7492ZM114.269 15.3047C117.242 15.2986 118.698 13.9961 119.173 11.922C119.648 9.84794 118.796 8.50226 115.823 8.5146H112.271L110.716 15.3171H114.269V15.3047Z" fill="black"/>
<path d="M128.369 10.5452C131.138 10.539 132.705 11.9526 133.106 13.6131L133.766 10.7242H135.53L132.52 23.8723H130.756L131.422 20.9649C130.232 22.6501 127.993 24.0761 125.242 24.0884C121.492 24.1007 119.308 21.4341 120.246 17.3106C121.183 13.1872 124.588 10.5575 128.363 10.5514L128.369 10.5452ZM128.363 12.0143C125.464 12.0205 122.812 13.9526 122.041 17.3044C121.27 20.6563 123.04 22.6193 125.933 22.6131C128.751 22.6069 131.508 20.5761 132.261 17.2983C133.013 14.0205 131.182 12.0081 128.363 12.0143Z" fill="black"/>
<path d="M148.187 10.6875H150L137.862 29.4035H136.023L139.675 23.7801L137.029 10.7184H138.966L141.081 21.9282L148.187 10.6937V10.6875Z" fill="black"/>
<path d="M0 28.218H5.38468C10.1587 28.218 14.1679 24.7242 15.6051 19.3168L18.7693 7.39086C19.5033 4.61926 17.733 1.80444 15.2473 1.80444H7.01303L0 28.218Z" fill="url(#paint0_radial_1_4181)"/>
<path opacity="0.39" d="M7.45071 4.91553C7.45071 4.91553 3.81158 16.6316 12.5393 25.0328C12.5393 25.0328 14.9634 22.5143 15.4691 19.5637C15.9749 16.6131 7.45071 4.91553 7.45071 4.91553Z" fill="#06345B"/>
<path d="M25.5727 2.99585C25.1656 3.49585 24.8202 4.04523 24.5488 4.63165C25.0669 5.78597 29.0083 13.6502 38.7723 12.1749C39.2966 11.286 39.6481 10.2983 39.8023 9.27363C32.3699 10.4897 26.9729 4.69955 25.5727 3.00202V2.99585Z" fill="url(#paint1_radial_1_4181)"/>
<path d="M39.1299 4.65013C37.4214 0.989636 33.2086 -0.89308 29.2858 0.415562C27.8363 0.897043 26.6212 1.76124 25.7021 2.84766C34.948 8.70569 38.5008 5.40322 39.1361 4.65013H39.1299Z" fill="url(#paint2_radial_1_4181)"/>
<path d="M23.8394 9.10083C23.9072 9.61318 24.0182 10.1193 24.1848 10.6255C25.5911 14.8539 30.1554 17.1379 34.3805 15.7305C36.2186 15.1193 37.6927 13.9033 38.6549 12.3786C36.2617 13.1193 29.8655 14.3477 23.8394 9.10083Z" fill="url(#paint3_radial_1_4181)"/>
<path d="M35.2072 18.1994C29.619 20.0636 23.5743 17.0389 21.7177 11.4464C21.6067 11.1068 21.5142 10.7673 21.434 10.4278C20.811 12.8044 21.1256 14.5945 21.1256 14.5945C21.5018 14.755 17.7579 14.2797 19.0038 6.96487C19.4602 4.2982 17.727 1.81055 15.4017 1.81055H7.03785C7.03785 1.81055 7.03168 1.84758 7.01317 1.85993C6.86514 2.67474 3.50357 21.4031 19.1272 24.4525C19.1272 24.4525 18.3808 27.1994 15.7718 28.7673C31.7531 28.8846 36.9466 17.4587 36.9466 17.4587C36.9466 17.4587 36.9404 17.4587 36.9342 17.4587C36.3914 17.755 35.8178 18.0081 35.2133 18.2056L35.2072 18.1994Z" fill="url(#paint4_radial_1_4181)"/>
</g>
<defs>
<radialGradient id="paint0_radial_1_4181" cx="0" cy="0" r="1" gradientUnits="userSpaceOnUse" gradientTransform="translate(32.5425 3.40938) scale(14.1371 14.1481)">
<stop stop-color="#5BA6FF"/>
<stop offset="0.45" stop-color="#2E92FF"/>
<stop offset="1" stop-color="#0049D4"/>
</radialGradient>
<radialGradient id="paint1_radial_1_4181" cx="0" cy="0" r="1" gradientUnits="userSpaceOnUse" gradientTransform="translate(28.0831 3.51437) scale(15.895 15.9074)">
<stop stop-color="#5BA6FF"/>
<stop offset="0.16" stop-color="#52A2FF"/>
<stop offset="0.41" stop-color="#3A97FF"/>
<stop offset="0.52" stop-color="#2E92FF"/>
<stop offset="0.65" stop-color="#1D77EF"/>
<stop offset="0.83" stop-color="#0855DB"/>
<stop offset="0.94" stop-color="#0049D4"/>
</radialGradient>
<radialGradient id="paint2_radial_1_4181" cx="0" cy="0" r="1" gradientUnits="userSpaceOnUse" gradientTransform="translate(28.8108 0.347661) scale(12.8788 12.8889)">
<stop stop-color="#5BA6FF"/>
<stop offset="0.16" stop-color="#52A2FF"/>
<stop offset="0.41" stop-color="#3A97FF"/>
<stop offset="0.52" stop-color="#2E92FF"/>
<stop offset="0.65" stop-color="#1D77EF"/>
<stop offset="0.83" stop-color="#0855DB"/>
<stop offset="0.94" stop-color="#0049D4"/>
</radialGradient>
<radialGradient id="paint3_radial_1_4181" cx="0" cy="0" r="1" gradientUnits="userSpaceOnUse" gradientTransform="translate(27.2688 9.48355) scale(14.279 14.2901)">
<stop stop-color="#5BA6FF"/>
<stop offset="0.16" stop-color="#52A2FF"/>
<stop offset="0.41" stop-color="#3A97FF"/>
<stop offset="0.52" stop-color="#2E92FF"/>
<stop offset="0.65" stop-color="#1D77EF"/>
<stop offset="0.83" stop-color="#0855DB"/>
<stop offset="0.94" stop-color="#0049D4"/>
</radialGradient>
<radialGradient id="paint4_radial_1_4181" cx="0" cy="0" r="1" gradientUnits="userSpaceOnUse" gradientTransform="translate(20.6075 11.9772) scale(16.8572 16.8704)">
<stop stop-color="#5BA6FF"/>
<stop offset="0.16" stop-color="#52A2FF"/>
<stop offset="0.41" stop-color="#3A97FF"/>
<stop offset="0.52" stop-color="#2E92FF"/>
<stop offset="0.65" stop-color="#1D77EF"/>
<stop offset="0.83" stop-color="#0855DB"/>
<stop offset="0.94" stop-color="#0049D4"/>
</radialGradient>
<clipPath id="clip0_1_4181">
<rect width="150" height="29.4032" fill="white"/>
</clipPath>
</defs>
</svg>
