<svg width="15" height="15" viewBox="0 0 15 15" fill="none" xmlns="http://www.w3.org/2000/svg">
<path d="M11.8048 14.0926C12.2161 14.0926 12.6181 13.9706 12.96 13.7422C13.3019 13.5137 13.5684 13.189 13.7258 12.809C13.8832 12.4291 13.9244 12.011 13.8441 11.6077C13.7639 11.2044 13.5659 10.8339 13.2751 10.5431C12.9843 10.2523 12.6138 10.0543 12.2105 9.97404C11.8071 9.89381 11.3891 9.93498 11.0091 10.0924C10.6292 10.2497 10.3045 10.5162 10.076 10.8582C9.84753 11.2001 9.72559 11.6021 9.72559 12.0133C9.72559 12.5648 9.94465 13.0937 10.3346 13.4836C10.7245 13.8735 11.2534 14.0926 11.8048 14.0926Z" stroke="#A19FA0" stroke-width="1.43948" stroke-linecap="round" stroke-linejoin="round"/>
<path d="M5.3584 6.95316L9.93275 4.59668" stroke="#A19FA0" stroke-width="1.43948" stroke-linecap="round" stroke-linejoin="round"/>
<path d="M11.8048 5.7752C12.2161 5.7752 12.6181 5.65326 12.96 5.42478C13.3019 5.19631 13.5684 4.87158 13.7258 4.49165C13.8832 4.11171 13.9244 3.69364 13.8441 3.29031C13.7639 2.88697 13.5659 2.51649 13.2751 2.2257C12.9843 1.93491 12.6138 1.73688 12.2105 1.65665C11.8071 1.57642 11.3891 1.6176 11.0091 1.77497C10.6292 1.93235 10.3045 2.19885 10.076 2.54078C9.84753 2.88271 9.72559 3.28471 9.72559 3.69595C9.72559 4.2474 9.94465 4.77627 10.3346 5.1662C10.7245 5.55614 11.2534 5.7752 11.8048 5.7752Z" stroke="#A19FA0" stroke-width="1.43948" stroke-linecap="round" stroke-linejoin="round"/>
<path d="M5.3584 8.75488L9.93275 11.1114" stroke="#A19FA0" stroke-width="1.43948" stroke-linecap="round" stroke-linejoin="round"/>
<path d="M3.48867 9.9334C3.89991 9.9334 4.30191 9.81146 4.64384 9.58299C4.98578 9.35452 5.25228 9.02978 5.40965 8.64985C5.56703 8.26992 5.6082 7.85185 5.52797 7.44851C5.44774 7.04518 5.24972 6.67469 4.95893 6.3839C4.66814 6.09311 4.29765 5.89508 3.89432 5.81486C3.49098 5.73463 3.07291 5.7758 2.69298 5.93318C2.31305 6.09055 1.98831 6.35705 1.75984 6.69898C1.53137 7.04092 1.40942 7.44292 1.40942 7.85415C1.40942 8.40561 1.62849 8.93447 2.01842 9.32441C2.40836 9.71434 2.93722 9.9334 3.48867 9.9334Z" stroke="#A19FA0" stroke-width="1.43948" stroke-linecap="round" stroke-linejoin="round"/>
</svg>
