<svg width="375" height="587" viewBox="0 0 375 587" fill="none" xmlns="http://www.w3.org/2000/svg">
<g opacity="0.1" clip-path="url(#clip0_13191_19303)">
<path d="M581.282 94.9286C546.289 20.1757 460 -18.2208 379.676 8.47257C349.995 18.3338 325.142 35.9311 306.254 58.0906C495.532 177.701 568.273 110.259 581.282 94.9286Z" fill="white"/>
<path d="M303.669 61.1226C295.347 71.3805 288.303 82.5736 282.679 94.4468C293.33 117.966 373.966 278.524 573.868 248.43C584.604 230.294 591.819 210.175 595 189.149C442.872 214 332.327 95.7503 303.669 61.1226Z" fill="white"/>
<path d="M268.108 185.664C269.443 196.063 271.744 206.491 275.209 216.806C304.01 303.12 397.513 349.791 484.029 321.029C521.72 308.504 551.856 283.709 571.511 252.595C522.515 267.671 391.492 292.834 268.108 185.664Z" fill="white"/>
<path d="M536.064 356.252C524.986 362.231 513.256 367.417 500.872 371.526C386.407 409.554 262.712 347.808 224.595 233.638C222.294 226.724 220.362 219.781 218.772 212.839C206.019 261.295 212.438 297.85 212.438 297.85C220.107 301.08 143.475 291.445 168.953 142.053C178.241 87.5894 142.765 36.7812 95.1614 36.7812H-76.4789L-220 576.005H-109.767C-53.3587 576.005 -2.23303 552.145 36.6225 510.858C-70.7414 407.74 -86.5904 280.309 -82.1879 194.986C-70.6846 313.832 -17.2299 462.176 171.537 498.957C171.537 498.957 156.285 554.979 102.773 587C430.006 589.409 536.319 356.195 536.319 356.195C536.206 356.195 536.149 356.224 536.064 356.252Z" fill="white"/>
</g>
<defs>
<clipPath id="clip0_13191_19303">
<rect width="375" height="587" fill="white"/>
</clipPath>
</defs>
</svg>
