<svg width="375" height="812" viewBox="0 0 375 812" fill="none" xmlns="http://www.w3.org/2000/svg">
<rect width="375" height="812" fill="url(#paint0_linear_1_58)"/>
<g opacity="0.1" clip-path="url(#clip0_1_58)">
<path d="M581.281 186.929C546.289 112.176 460 73.7791 379.676 100.473C349.994 110.334 325.142 127.931 306.254 150.091C495.532 269.701 568.273 202.259 581.281 186.929Z" fill="white"/>
<path d="M303.669 153.123C295.347 163.381 288.303 174.574 282.679 186.447C293.33 209.967 373.967 370.524 573.868 340.43C584.604 322.294 591.819 302.175 595 281.149C442.873 306 332.328 187.75 303.669 153.123Z" fill="white"/>
<path d="M268.108 277.663C269.443 288.063 271.744 298.491 275.209 308.806C304.01 395.12 397.513 441.791 484.029 413.029C521.72 400.504 551.856 375.709 571.511 344.595C522.515 359.671 391.491 384.834 268.108 277.663Z" fill="white"/>
<path d="M536.064 448.252C524.986 454.231 513.256 459.417 500.872 463.526C386.407 501.554 262.712 439.808 224.595 325.638C222.294 318.724 220.362 311.781 218.772 304.839C206.019 353.295 212.438 389.85 212.438 389.85C220.107 393.08 143.475 383.445 168.953 234.053C178.241 179.589 142.765 128.781 95.1614 128.781H-76.4789L-220 668.005H-109.767C-53.3587 668.005 -2.23303 644.145 36.6225 602.858C-70.7414 499.74 -86.5904 372.309 -82.1879 286.986C-70.6846 405.832 -17.2299 554.176 171.537 590.957C171.537 590.957 156.285 646.979 102.773 679C430.006 681.408 536.319 448.195 536.319 448.195C536.206 448.195 536.149 448.224 536.064 448.252Z" fill="white"/>
</g>
<g clip-path="url(#clip1_1_58)">
<path d="M220.81 366.53C218.04 360.6 211.21 357.55 204.85 359.67C202.5 360.45 200.53 361.85 199.04 363.61C214.02 373.1 219.78 367.75 220.81 366.53Z" fill="white"/>
<path d="M198.83 363.85C198.17 364.66 197.61 365.55 197.17 366.5C198.01 368.37 204.4 381.11 220.23 378.72C221.08 377.28 221.65 375.68 221.9 374.02C209.85 375.98 201.1 366.6 198.83 363.85Z" fill="white"/>
<path d="M196.01 373.74C196.12 374.57 196.3 375.39 196.57 376.21C198.85 383.06 206.25 386.76 213.1 384.48C216.09 383.49 218.47 381.52 220.03 379.05C216.15 380.24 205.78 382.24 196.01 373.74Z" fill="white"/>
<path d="M217.23 387.27C216.35 387.75 215.42 388.16 214.44 388.48C205.38 391.5 195.58 386.6 192.57 377.54C192.39 376.99 192.24 376.44 192.11 375.89C191.1 379.74 191.61 382.64 191.61 382.64C192.22 382.9 186.15 382.13 188.17 370.28C188.91 365.96 186.1 361.93 182.33 361.93H168.74L157.36 404.71H166.09C170.56 404.71 174.6 402.82 177.68 399.54C169.18 391.36 167.92 381.24 168.27 374.47C169.19 383.91 173.42 395.68 188.36 398.6C188.36 398.6 187.15 403.05 182.92 405.59C208.83 405.78 217.25 387.27 217.25 387.27C217.24 387.27 217.23 387.27 217.23 387.27Z" fill="white"/>
<path d="M135.94 417.04L130.95 444.51H125.2L115.59 425.68L112.17 444.51H106.42L111.41 417.04H117.16L126.76 435.91L130.19 417.04H135.94Z" fill="white"/>
<path d="M145.26 444.86C138.64 444.86 134.64 440.46 135.88 433.62C137.13 426.74 142.61 422.38 149.35 422.38C155.93 422.38 159.79 426.66 158.61 433.15C158.48 433.86 158.31 434.57 158.06 435.27H141.41C141.11 438.49 143.08 440.3 145.96 440.3C148.43 440.3 150 439.12 151 437.67H157.21C155.25 441.68 150.89 444.86 145.26 444.86ZM142.13 431.58H152.94C153.38 428.71 151.32 426.9 148.37 426.9C145.61 426.9 143.12 428.59 142.13 431.58Z" fill="white"/>
<path d="M164.61 415.42H170.36L165.07 444.51H159.32L164.61 415.42Z" fill="white"/>
<path d="M173.61 415.42H179.36L174.07 444.51H168.32L173.61 415.42Z" fill="white"/>
<path d="M187.18 444.86C181.47 444.86 178.06 441.68 178.55 437.63H184.34C184.25 439.28 185.62 440.54 187.92 440.54C190.18 440.54 191.59 439.56 191.82 438.3C192.53 434.41 179.22 436.89 180.67 428.91C181.33 425.29 185.22 422.39 190.85 422.39C196.36 422.39 199.16 425.26 198.71 429.58H193.2C193.34 427.89 192.15 426.75 189.89 426.75C187.75 426.75 186.49 427.58 186.27 428.83C185.55 432.8 198.61 430.32 197.33 438.3C196.65 442.03 192.72 444.86 187.18 444.86Z" fill="white"/>
<path d="M211.26 432.8H205.47L203.34 444.51H200.46L205.45 417.04H214.12C220.78 417.04 223.2 420.42 222.38 424.94C221.58 429.38 218 432.8 211.26 432.8ZM211.69 430.44C216.54 430.44 218.82 428.32 219.43 424.94C220.07 421.4 218.55 419.36 213.7 419.36H207.91L205.9 430.44H211.69Z" fill="white"/>
<path d="M234.33 422.74C238.85 422.74 241.51 425.06 242.29 427.77L243.15 423.05H246.03L242.13 444.51H239.25L240.11 439.75C238.3 442.5 234.75 444.82 230.27 444.82C224.15 444.82 220.38 440.46 221.6 433.74C222.83 427.02 228.17 422.74 234.33 422.74ZM234.43 425.13C229.71 425.13 225.52 428.27 224.52 433.74C223.53 439.16 226.56 442.43 231.28 442.43C235.88 442.43 240.22 439.13 241.19 433.78C242.17 428.43 239.03 425.13 234.43 425.13Z" fill="white"/>
<path d="M266.67 423.05H269.63L252.14 452.12H249.14L253.79 444.39L248.46 423.05H251.62L255.94 441.37L266.67 423.05Z" fill="white"/>
</g>
<defs>
<linearGradient id="paint0_linear_1_58" x1="-61" y1="-243" x2="426.074" y2="794.35" gradientUnits="userSpaceOnUse">
<stop stop-color="#449CFF"/>
<stop offset="0.61" stop-color="#0058D0"/>
<stop offset="1" stop-color="#00336A"/>
</linearGradient>
<clipPath id="clip0_1_58">
<rect width="375" height="587" fill="white" transform="translate(0 92)"/>
</clipPath>
<clipPath id="clip1_1_58">
<rect width="163.21" height="93.12" fill="white" transform="translate(106.42 359)"/>
</clipPath>
</defs>
</svg>
