<svg width="39" height="40" viewBox="0 0 39 40" fill="none" xmlns="http://www.w3.org/2000/svg">
<path d="M19.5401 3.84521C10.6014 3.84521 3.31738 11.1292 3.31738 20.0679C3.31738 29.0067 10.6014 36.2907 19.5401 36.2907C28.4788 36.2907 35.7628 29.0067 35.7628 20.0679C35.7628 11.1292 28.4788 3.84521 19.5401 3.84521ZM27.2946 16.3367L18.0963 25.535C17.8692 25.7621 17.5609 25.8919 17.2365 25.8919C16.912 25.8919 16.6038 25.7621 16.3767 25.535L11.7856 20.944C11.3152 20.4735 11.3152 19.6948 11.7856 19.2244C12.2561 18.7539 13.0348 18.7539 13.5053 19.2244L17.2365 22.9556L25.575 14.6171C26.0454 14.1466 26.8241 14.1466 27.2946 14.6171C27.765 15.0876 27.765 15.85 27.2946 16.3367Z" fill="#52C773"/>
</svg>
