<svg width="97" height="84" viewBox="0 0 97 84" fill="none" xmlns="http://www.w3.org/2000/svg">
<g clip-path="url(#clip0_13191_19854)">
<rect x="14.625" y="3.86938" width="80" height="80" rx="40" fill="#51BC6F"/>
<path d="M69.4535 33.0409C68.7647 32.3521 67.8482 31.9384 66.876 31.8773C65.9039 31.8161 64.9428 32.1118 64.1731 32.7089L63.7971 33.0409L50.6243 46.2094L45.452 41.0412L45.0759 40.7092C44.3062 40.1126 43.3453 39.8172 42.3734 39.8785C41.4015 39.9399 40.4853 40.3536 39.7967 41.0422C39.108 41.7308 38.6943 42.647 38.6329 43.6189C38.5716 44.5908 38.867 45.5517 39.4636 46.3214L39.7956 46.6974L47.7961 54.6977L48.1721 55.0297C48.8737 55.574 49.7364 55.8694 50.6243 55.8694C51.5122 55.8694 52.3749 55.574 53.0764 55.0297L53.4525 54.6977L69.4535 38.6971L69.7855 38.3211C70.3825 37.5514 70.6782 36.5904 70.6171 35.6182C70.556 34.6461 70.1422 33.7297 69.4535 33.0409Z" fill="white"/>
<rect x="74.9531" y="5.0813" width="27" height="72.2086" transform="rotate(45 74.9531 5.0813)" fill="url(#paint0_linear_13191_19854)"/>
<rect x="66.6133" y="3.1123" width="5.44326" height="26.6289" transform="rotate(45 66.6133 3.1123)" fill="url(#paint1_linear_13191_19854)"/>
<rect x="96.8574" y="36" width="5.44326" height="36.5671" transform="rotate(45 96.8574 36)" fill="url(#paint2_linear_13191_19854)"/>
</g>
<path d="M16.7493 5.19987C17.3936 3.45864 19.8564 3.45864 20.5007 5.19987L23.1675 12.4067C23.3701 12.9542 23.8017 13.3858 24.3491 13.5884L31.556 16.2552C33.2972 16.8995 33.2972 19.3622 31.556 20.0066L24.3491 22.6733C23.8017 22.8759 23.3701 23.3075 23.1675 23.855L20.5007 31.0618C19.8564 32.8031 17.3936 32.8031 16.7493 31.0618L14.0825 23.855C13.8799 23.3075 13.4483 22.8759 12.9009 22.6733L5.69401 20.0066C3.95278 19.3622 3.95278 16.8995 5.69401 16.2552L12.9009 13.5884C13.4483 13.3858 13.8799 12.9542 14.0825 12.4067L16.7493 5.19987Z" fill="#FFCE01"/>
<path d="M16.7493 5.19987C17.3936 3.45864 19.8564 3.45864 20.5007 5.19987L23.1675 12.4067C23.3701 12.9542 23.8017 13.3858 24.3491 13.5884L31.556 16.2552C33.2972 16.8995 33.2972 19.3622 31.556 20.0066L24.3491 22.6733C23.8017 22.8759 23.3701 23.3075 23.1675 23.855L20.5007 31.0618C19.8564 32.8031 17.3936 32.8031 16.7493 31.0618L14.0825 23.855C13.8799 23.3075 13.4483 22.8759 12.9009 22.6733L5.69401 20.0066C3.95278 19.3622 3.95278 16.8995 5.69401 16.2552L12.9009 13.5884C13.4483 13.3858 13.8799 12.9542 14.0825 12.4067L16.7493 5.19987Z" fill="#FFCE01"/>
<path d="M81.4993 61.0846C82.1436 59.3434 84.6064 59.3434 85.2507 61.0846L86.567 64.642C86.7696 65.1894 87.2012 65.621 87.7487 65.8236L91.306 67.1399C93.0472 67.7842 93.0472 70.247 91.306 70.8913L87.7487 72.2077C87.2012 72.4102 86.7696 72.8419 86.567 73.3893L85.2507 76.9466C84.6064 78.6879 82.1436 78.6879 81.4993 76.9466L80.183 73.3893C79.9804 72.8419 79.5488 72.4102 79.0013 72.2077L75.444 70.8913C73.7028 70.247 73.7028 67.7842 75.444 67.1399L79.0013 65.8236C79.5488 65.621 79.9804 65.1894 80.183 64.642L81.4993 61.0846Z" fill="#2E92FF"/>
<defs>
<linearGradient id="paint0_linear_13191_19854" x1="88.4531" y1="5.0813" x2="88.4531" y2="77.2899" gradientUnits="userSpaceOnUse">
<stop stop-color="white" stop-opacity="0.2"/>
<stop offset="1" stop-color="white" stop-opacity="0"/>
</linearGradient>
<linearGradient id="paint1_linear_13191_19854" x1="69.3349" y1="3.1123" x2="69.3349" y2="29.7412" gradientUnits="userSpaceOnUse">
<stop stop-color="white" stop-opacity="0.2"/>
<stop offset="1" stop-color="white" stop-opacity="0"/>
</linearGradient>
<linearGradient id="paint2_linear_13191_19854" x1="99.579" y1="36" x2="99.579" y2="72.5671" gradientUnits="userSpaceOnUse">
<stop stop-color="white" stop-opacity="0.2"/>
<stop offset="1" stop-color="white" stop-opacity="0"/>
</linearGradient>
<clipPath id="clip0_13191_19854">
<rect x="14.625" y="3.86938" width="80" height="80" rx="40" fill="white"/>
</clipPath>
</defs>
</svg>
