<svg width="334" height="33" viewBox="0 0 334 33" fill="none" xmlns="http://www.w3.org/2000/svg">
<path fill-rule="evenodd" clip-rule="evenodd" d="M0 3C0 1.34315 1.34315 0 3.00001 0H331C332.657 0 334 1.34314 334 3L334 23L334 24L334 29.557C334 31.9197 331.396 33.3551 329.398 32.0935L317.317 24.4635C316.838 24.1607 316.282 24 315.715 24H315.294C314.484 24 313.708 24.3275 313.144 24.9079L308.336 29.849C307.18 31.0369 305.28 31.0625 304.093 29.9064L298.763 24.7165C298.291 24.2571 297.659 24 297 24C296.341 24 295.709 24.2571 295.237 24.7165L289.794 30.0165C288.652 31.1288 286.839 31.1532 285.667 30.0722L279.811 24.6704C279.344 24.2393 278.731 24 278.095 24C277.412 24 276.758 24.2762 276.282 24.7657L271.336 29.849C270.18 31.0369 268.28 31.0625 267.093 29.9064L261.763 24.7165C261.291 24.2571 260.659 24 260 24C259.341 24 258.709 24.2571 258.237 24.7165L252.794 30.0165C251.652 31.1288 249.839 31.1532 248.667 30.0722L242.845 24.7017C242.356 24.2505 241.715 24 241.049 24C240.359 24 239.696 24.2694 239.202 24.7508L233.794 30.0165C232.652 31.1288 230.839 31.1532 229.667 30.0722L223.811 24.6704C223.344 24.2393 222.731 24 222.095 24C221.412 24 220.758 24.2762 220.282 24.7657L215.336 29.849C214.18 31.0369 212.28 31.0625 211.093 29.9064L205.763 24.7165C205.291 24.2571 204.659 24 204 24C203.342 24 202.709 24.2571 202.237 24.7165L196.794 30.0165C195.652 31.1288 193.839 31.1532 192.667 30.0722L186.811 24.6704C186.344 24.2393 185.731 24 185.095 24C184.412 24 183.758 24.2762 183.282 24.7657L178.336 29.849C177.18 31.0369 175.28 31.0625 174.093 29.9064L168.73 24.6843C168.279 24.2455 167.675 24 167.046 24C166.395 24 165.771 24.2634 165.316 24.7304L160.336 29.849C159.18 31.0369 157.28 31.0625 156.093 29.9064L150.763 24.7165C150.291 24.2571 149.659 24 149 24C148.342 24 147.709 24.2571 147.237 24.7165L141.794 30.0165C140.652 31.1288 138.839 31.1532 137.667 30.0722L131.811 24.6704C131.344 24.2393 130.731 24 130.095 24C129.412 24 128.758 24.2762 128.282 24.7657L123.336 29.849C122.18 31.0369 120.28 31.0625 119.093 29.9064L113.763 24.7165C113.291 24.2571 112.659 24 112 24C111.342 24 110.709 24.2571 110.237 24.7165L104.794 30.0165C103.652 31.1288 101.839 31.1532 100.667 30.0722L94.8448 24.7017C94.3557 24.2505 93.7147 24 93.0493 24C92.3592 24 91.6963 24.2694 91.2019 24.7508L85.7939 30.0165C84.6516 31.1288 82.8388 31.1532 81.6669 30.0722L75.8109 24.6704C75.3436 24.2393 74.7311 24 74.0954 24C73.4124 24 72.7584 24.2762 72.282 24.7657L67.3361 29.849C66.1804 31.0369 64.2805 31.0625 63.0931 29.9064L57.7629 24.7165C57.2911 24.2571 56.6586 24 56 24C55.3415 24 54.709 24.2571 54.2372 24.7165L48.7939 30.0165C47.6516 31.1288 45.8388 31.1532 44.6669 30.0722L38.8109 24.6704C38.3436 24.2393 37.7311 24 37.0954 24C36.4124 24 35.7584 24.2762 35.282 24.7657L30.3361 29.849C29.1804 31.0369 27.2805 31.0625 26.0931 29.9064L20.9006 24.8506C20.3405 24.3052 19.5896 24 18.8078 24H17.5635C17.1193 24 16.6807 24.0986 16.2793 24.2888L4.28429 29.9706C2.29395 30.9134 2.86996e-05 29.4617 2.86996e-05 27.2594V24C2.86996e-05 24 2.2275e-05 24 1.43498e-05 24C6.42463e-06 24 0 24 0 24V3Z" fill="white"/>
</svg>
