<svg width="151" height="20" viewBox="0 0 151 20" fill="none" xmlns="http://www.w3.org/2000/svg">
<path d="M1.89222 15V6.6H4.72422C5.28422 6.6 5.77622 6.716 6.20022 6.948C6.63222 7.172 6.96822 7.488 7.20822 7.896C7.45622 8.296 7.58022 8.764 7.58022 9.3C7.58022 9.82 7.46822 10.284 7.24422 10.692C7.02022 11.1 6.70822 11.42 6.30822 11.652C5.91622 11.884 5.46422 12 4.95222 12H3.06822V15H1.89222ZM3.06822 10.908H4.94022C5.36422 10.908 5.71222 10.76 5.98422 10.464C6.25622 10.16 6.39222 9.772 6.39222 9.3C6.39222 8.812 6.23222 8.42 5.91222 8.124C5.60022 7.828 5.20022 7.68 4.71222 7.68H3.06822V10.908ZM11.3623 15.144C10.7623 15.144 10.2343 15.012 9.77828 14.748C9.32228 14.476 8.96228 14.104 8.69828 13.632C8.44228 13.16 8.31428 12.616 8.31428 12C8.31428 11.384 8.44228 10.84 8.69828 10.368C8.95428 9.896 9.31028 9.528 9.76628 9.264C10.2223 8.992 10.7463 8.856 11.3383 8.856C11.9303 8.856 12.4543 8.992 12.9103 9.264C13.3663 9.528 13.7223 9.896 13.9783 10.368C14.2343 10.84 14.3623 11.384 14.3623 12C14.3623 12.616 14.2343 13.16 13.9783 13.632C13.7223 14.104 13.3663 14.476 12.9103 14.748C12.4623 15.012 11.9463 15.144 11.3623 15.144ZM11.3623 14.1C11.7223 14.1 12.0423 14.012 12.3223 13.836C12.6023 13.652 12.8183 13.404 12.9703 13.092C13.1303 12.78 13.2103 12.416 13.2103 12C13.2103 11.584 13.1303 11.22 12.9703 10.908C12.8183 10.596 12.5983 10.352 12.3103 10.176C12.0223 9.992 11.6983 9.9 11.3383 9.9C10.9703 9.9 10.6463 9.992 10.3663 10.176C10.0863 10.352 9.86628 10.596 9.70628 10.908C9.54628 11.22 9.46628 11.584 9.46628 12C9.46628 12.416 9.54628 12.78 9.70628 13.092C9.86628 13.404 10.0903 13.652 10.3783 13.836C10.6663 14.012 10.9943 14.1 11.3623 14.1ZM21.0397 15L23.0677 9H24.2077L22.1677 15H21.0397ZM16.9957 15L18.9877 9H20.0197L18.0517 15H16.9957ZM16.9117 15L14.8717 9H16.0237L18.0037 15H16.9117ZM21.0397 15L19.0717 9H20.1157L22.0957 15H21.0397ZM27.7376 15.144C27.1536 15.144 26.6376 15.012 26.1896 14.748C25.7416 14.476 25.3896 14.104 25.1336 13.632C24.8776 13.16 24.7496 12.616 24.7496 12C24.7496 11.384 24.8776 10.84 25.1336 10.368C25.3896 9.896 25.7416 9.528 26.1896 9.264C26.6456 8.992 27.1656 8.856 27.7496 8.856C28.3016 8.856 28.7856 8.996 29.2016 9.276C29.6176 9.548 29.9416 9.94 30.1736 10.452C30.4136 10.956 30.5336 11.552 30.5336 12.24H25.6856L25.9016 12.06C25.9016 12.484 25.9856 12.852 26.1536 13.164C26.3216 13.476 26.5496 13.716 26.8376 13.884C27.1256 14.044 27.4536 14.124 27.8216 14.124C28.2216 14.124 28.5536 14.032 28.8176 13.848C29.0896 13.656 29.3016 13.416 29.4536 13.128L30.4376 13.584C30.2776 13.896 30.0696 14.172 29.8136 14.412C29.5576 14.644 29.2536 14.824 28.9016 14.952C28.5576 15.08 28.1696 15.144 27.7376 15.144ZM25.9736 11.52L25.7456 11.34H29.5376L29.3216 11.52C29.3216 11.168 29.2496 10.868 29.1056 10.62C28.9616 10.364 28.7696 10.172 28.5296 10.044C28.2896 9.908 28.0216 9.84 27.7256 9.84C27.4376 9.84 27.1576 9.908 26.8856 10.044C26.6216 10.172 26.4016 10.36 26.2256 10.608C26.0576 10.856 25.9736 11.16 25.9736 11.52ZM32.4758 11.772C32.4758 11.124 32.5998 10.596 32.8478 10.188C33.0958 9.78 33.4158 9.476 33.8078 9.276C34.1998 9.076 34.6118 8.976 35.0438 8.976V10.056C34.6838 10.056 34.3398 10.112 34.0118 10.224C33.6918 10.328 33.4278 10.504 33.2198 10.752C33.0198 10.992 32.9198 11.32 32.9198 11.736L32.4758 11.772ZM31.7798 15V9H32.9198V15H31.7798ZM38.7354 15.144C38.1514 15.144 37.6354 15.012 37.1874 14.748C36.7394 14.476 36.3874 14.104 36.1314 13.632C35.8754 13.16 35.7474 12.616 35.7474 12C35.7474 11.384 35.8754 10.84 36.1314 10.368C36.3874 9.896 36.7394 9.528 37.1874 9.264C37.6434 8.992 38.1634 8.856 38.7474 8.856C39.2994 8.856 39.7834 8.996 40.1994 9.276C40.6154 9.548 40.9394 9.94 41.1714 10.452C41.4114 10.956 41.5314 11.552 41.5314 12.24H36.6834L36.8994 12.06C36.8994 12.484 36.9834 12.852 37.1514 13.164C37.3194 13.476 37.5474 13.716 37.8354 13.884C38.1234 14.044 38.4514 14.124 38.8194 14.124C39.2194 14.124 39.5514 14.032 39.8154 13.848C40.0874 13.656 40.2994 13.416 40.4514 13.128L41.4354 13.584C41.2754 13.896 41.0674 14.172 40.8114 14.412C40.5554 14.644 40.2514 14.824 39.8994 14.952C39.5554 15.08 39.1674 15.144 38.7354 15.144ZM36.9714 11.52L36.7434 11.34H40.5354L40.3194 11.52C40.3194 11.168 40.2474 10.868 40.1034 10.62C39.9594 10.364 39.7674 10.172 39.5274 10.044C39.2874 9.908 39.0194 9.84 38.7234 9.84C38.4354 9.84 38.1554 9.908 37.8834 10.044C37.6194 10.172 37.3994 10.36 37.2234 10.608C37.0554 10.856 36.9714 11.16 36.9714 11.52ZM47.1696 15L47.1216 13.884V6.6H48.2496V15H47.1696ZM45.1536 15.144C44.6096 15.144 44.1336 15.012 43.7256 14.748C43.3256 14.484 43.0096 14.116 42.7776 13.644C42.5536 13.172 42.4416 12.624 42.4416 12C42.4416 11.368 42.5536 10.82 42.7776 10.356C43.0096 9.884 43.3256 9.516 43.7256 9.252C44.1336 8.988 44.6096 8.856 45.1536 8.856C45.6576 8.856 46.0936 8.988 46.4616 9.252C46.8376 9.516 47.1256 9.884 47.3256 10.356C47.5256 10.82 47.6256 11.368 47.6256 12C47.6256 12.624 47.5256 13.172 47.3256 13.644C47.1256 14.116 46.8376 14.484 46.4616 14.748C46.0936 15.012 45.6576 15.144 45.1536 15.144ZM45.4176 14.112C45.7536 14.112 46.0496 14.024 46.3056 13.848C46.5616 13.664 46.7616 13.416 46.9056 13.104C47.0496 12.784 47.1216 12.416 47.1216 12C47.1216 11.584 47.0496 11.22 46.9056 10.908C46.7616 10.588 46.5616 10.34 46.3056 10.164C46.0496 9.98 45.7496 9.888 45.4056 9.888C45.0536 9.888 44.7416 9.98 44.4696 10.164C44.1976 10.34 43.9856 10.588 43.8336 10.908C43.6816 11.22 43.6056 11.584 43.6056 12C43.6056 12.416 43.6816 12.784 43.8336 13.104C43.9936 13.416 44.2096 13.664 44.4816 13.848C44.7536 14.024 45.0656 14.112 45.4176 14.112ZM53.002 15V6.6H54.142V13.884L54.082 15H53.002ZM56.11 15.144C55.606 15.144 55.166 15.012 54.79 14.748C54.422 14.484 54.138 14.116 53.938 13.644C53.738 13.172 53.638 12.624 53.638 12C53.638 11.368 53.738 10.82 53.938 10.356C54.138 9.884 54.422 9.516 54.79 9.252C55.166 8.988 55.606 8.856 56.11 8.856C56.646 8.856 57.118 8.988 57.526 9.252C57.934 9.516 58.25 9.884 58.474 10.356C58.706 10.82 58.822 11.368 58.822 12C58.822 12.624 58.706 13.172 58.474 13.644C58.25 14.116 57.934 14.484 57.526 14.748C57.118 15.012 56.646 15.144 56.11 15.144ZM55.834 14.112C56.194 14.112 56.51 14.024 56.782 13.848C57.054 13.664 57.266 13.416 57.418 13.104C57.578 12.784 57.658 12.416 57.658 12C57.658 11.584 57.582 11.22 57.43 10.908C57.278 10.588 57.066 10.34 56.794 10.164C56.522 9.98 56.206 9.888 55.846 9.888C55.518 9.888 55.222 9.98 54.958 10.164C54.702 10.34 54.502 10.588 54.358 10.908C54.214 11.228 54.142 11.592 54.142 12C54.142 12.416 54.214 12.784 54.358 13.104C54.502 13.416 54.702 13.664 54.958 13.848C55.214 14.024 55.506 14.112 55.834 14.112ZM60.7329 17.544C60.5569 17.544 60.3609 17.512 60.1449 17.448C59.9369 17.384 59.7209 17.3 59.4969 17.196L59.9169 16.26C60.0929 16.34 60.2449 16.4 60.3729 16.44C60.5089 16.48 60.6169 16.5 60.6969 16.5C60.8969 16.5 61.0649 16.444 61.2009 16.332C61.3449 16.22 61.4609 16.064 61.5489 15.864L62.2449 14.22L64.3809 9H65.6049L62.7609 15.744C62.6089 16.112 62.4489 16.432 62.2809 16.704C62.1129 16.976 61.9049 17.184 61.6569 17.328C61.4169 17.472 61.1089 17.544 60.7329 17.544ZM61.9329 15L59.3049 9H60.5169L62.6889 14.208L63.0369 15H61.9329Z" fill="#1D2939"/>
<path d="M83.9865 16.8059C83.7256 15.4894 83.1399 13.6827 81.1656 8.06006H77.8242L82.4023 19.7291H85.5268L89.8665 8.06006H86.5903C84.724 13.5713 84.2035 15.3331 83.9865 16.8059Z" fill="#02272C"/>
<path d="M95.7649 7.81396C92.337 7.81396 89.9062 10.4246 89.9062 13.9279C89.9062 17.5425 92.4235 19.9518 95.9392 19.9518C98.1721 19.9518 100.081 18.7612 100.988 17.0624L98.6949 15.7796C98.2395 16.6948 97.3064 17.3412 95.9606 17.3412C94.3764 17.3412 93.1397 16.3148 92.9879 14.8869H101.602C101.753 10.202 99.2143 7.81396 95.7649 7.81396ZM92.9655 12.6788C93.0734 11.3184 94.2235 10.3582 95.7649 10.3582C97.3052 10.3582 98.4127 11.3173 98.4779 12.6788H92.9655Z" fill="#02272C"/>
<path d="M113.972 8.06006H110.891V19.7291H113.972V8.06006Z" fill="#02272C"/>
<path d="M128.945 5.47184C129.357 5.47184 129.834 5.5393 130.312 5.67309V3.12994C129.791 2.95117 129.075 2.81738 128.359 2.81738C126.319 2.81738 124.279 3.93268 124.279 7.23473V8.05997H119.785V7.68108C119.611 6.00813 120.263 5.47184 121.369 5.47184C121.782 5.47184 122.258 5.5393 122.736 5.67309V3.12994C122.216 2.95117 121.499 2.81738 120.783 2.81738C118.744 2.81738 116.703 3.93268 116.703 7.23473V8.05997H115.357V10.5357H116.703V19.729H119.785V10.5357H124.279V19.729H127.36V10.5357H130.312V8.05997H127.36V7.68108C127.187 6.007 127.838 5.47184 128.945 5.47184Z" fill="#02272C"/>
<path d="M106.214 11.635V11.1796L105.879 8.05972H103.197V19.7288H106.214V15C106.214 12.5333 107.87 11.0031 109.688 11.0031V7.9248C107.554 8.14404 106.214 9.40775 106.214 11.635Z" fill="#02272C"/>
<path d="M113.996 3.84521H110.865V6.385H113.996V3.84521Z" fill="#02272C"/>
<path d="M143.918 7.95776V15.8346H143.944C144.459 11.8557 146.748 9.25519 150.177 8.01734V0C146.233 0.707181 143.918 3.2717 143.918 7.95776Z" fill="#60BEB2"/>
<path d="M136.562 14.6946L142.821 20.0002V9.47791L136.562 4.17236V14.6946Z" fill="#60BEB2"/>
</svg>
