<svg width="25" height="24" viewBox="0 0 25 24" fill="none" xmlns="http://www.w3.org/2000/svg">
<g clip-path="url(#clip0_1_4495)">
<path d="M17.5569 12.575C15.1489 12.6326 15.1449 16.1622 17.5521 16.2262C19.9601 16.1678 19.9633 12.6398 17.5569 12.575ZM16.9289 14.403C16.9297 13.5838 18.1753 13.5806 18.1801 14.3998C18.1769 15.2166 16.9353 15.2198 16.9289 14.403ZM12.7561 11.4246C15.1633 11.3638 15.1633 7.83424 12.7561 7.77344C10.3481 7.83504 10.3497 11.3622 12.7561 11.4246ZM12.7561 8.97424C13.5745 8.97744 13.5745 10.2222 12.7561 10.2254C11.9377 10.2214 11.9385 8.97904 12.7561 8.97424ZM19.0521 8.11024C18.9394 7.99727 18.7864 7.93366 18.6268 7.93336C18.4672 7.93306 18.314 7.9961 18.2009 8.10864L11.2489 15.0278C11.1915 15.0831 11.1456 15.1492 11.114 15.2223C11.0824 15.2954 11.0657 15.3741 11.0648 15.4537C11.0639 15.5334 11.0789 15.6124 11.1089 15.6862C11.1389 15.76 11.1833 15.8271 11.2395 15.8836C11.2957 15.9401 11.3626 15.9848 11.4362 16.0151C11.5099 16.0454 11.5889 16.0608 11.6685 16.0603C11.7482 16.0598 11.8269 16.0435 11.9002 16.0122C11.9735 15.9809 12.0398 15.9354 12.0953 15.8782L19.0481 8.95984C19.1042 8.90437 19.1489 8.83836 19.1795 8.76561C19.2101 8.69286 19.226 8.61479 19.2264 8.53587C19.2267 8.45695 19.2115 8.37873 19.1816 8.30569C19.1517 8.23265 19.1077 8.16623 19.0521 8.11024ZM7.58169 8.42944C7.42256 8.42944 7.26995 8.49265 7.15742 8.60517C7.0449 8.7177 6.98169 8.87031 6.98169 9.02944V10.5678C6.98169 10.727 7.0449 10.8796 7.15742 10.9921C7.26995 11.1046 7.42256 11.1678 7.58169 11.1678C7.74082 11.1678 7.89343 11.1046 8.00595 10.9921C8.11848 10.8796 8.18169 10.727 8.18169 10.5678V9.02944C8.18169 8.87031 8.11848 8.7177 8.00595 8.60517C7.89343 8.49265 7.74082 8.42944 7.58169 8.42944ZM7.58169 12.8326C7.42256 12.8326 7.26995 12.8959 7.15742 13.0084C7.0449 13.1209 6.98169 13.2735 6.98169 13.4326V14.9702C6.98169 15.1294 7.0449 15.282 7.15742 15.3945C7.26995 15.507 7.42256 15.5702 7.58169 15.5702C7.74082 15.5702 7.89343 15.507 8.00595 15.3945C8.11848 15.282 8.18169 15.1294 8.18169 14.9702V13.4326C8.18169 13.2735 8.11848 13.1209 8.00595 13.0084C7.89343 12.8959 7.74082 12.8326 7.58169 12.8326Z" fill="#2969FF"/>
<path d="M23.2032 10.0176C23.5357 9.8392 23.8134 9.57374 24.0066 9.24961C24.1999 8.92549 24.3012 8.55491 24.3 8.17757V6.11997C24.2993 5.56491 24.0786 5.03276 23.6861 4.64027C23.2936 4.24778 22.7614 4.027 22.2064 4.02637H2.79357C2.23851 4.027 1.70636 4.24778 1.31387 4.64027C0.921383 5.03276 0.700604 5.56491 0.699969 6.11997V8.17597C0.698692 8.55331 0.800087 8.92389 0.993295 9.24801C1.1865 9.57214 1.46424 9.8376 1.79677 10.016C2.15566 10.2081 2.45568 10.4941 2.66484 10.8433C2.87401 11.1926 2.98448 11.5921 2.98448 11.9992C2.98448 12.4063 2.87401 12.8057 2.66484 13.155C2.45568 13.5042 2.15566 13.7902 1.79677 13.9824C1.464 14.1609 1.18611 14.4266 0.992882 14.751C0.799659 15.0754 0.698401 15.4464 0.699969 15.824V17.88C0.700604 18.435 0.921383 18.9672 1.31387 19.3597C1.70636 19.7522 2.23851 19.9729 2.79357 19.9736H22.2064C22.7614 19.9729 23.2936 19.7522 23.6861 19.3597C24.0786 18.9672 24.2993 18.435 24.3 17.88V15.824C24.3012 15.4466 24.1999 15.076 24.0066 14.7519C23.8134 14.4278 23.5357 14.1623 23.2032 13.984C21.632 13.1976 21.644 10.804 23.2032 10.0176ZM21.2272 13.6272C21.5481 14.2265 22.0391 14.7175 22.6384 15.0384C22.9256 15.1936 23.1032 15.4944 23.1 15.8208V17.8768C23.0998 18.1137 23.0055 18.3409 22.838 18.5084C22.6705 18.6759 22.4433 18.7702 22.2064 18.7704H8.17997C8.14717 18.2504 8.38637 17.2552 7.57997 17.2352C6.77277 17.2544 7.01277 18.2544 6.97997 18.7736H2.79357C2.55664 18.7734 2.32947 18.6791 2.16193 18.5116C1.9944 18.3441 1.90018 18.1169 1.89997 17.88V15.824C1.89839 15.6639 1.94054 15.5064 2.02189 15.3685C2.10324 15.2307 2.22069 15.1176 2.36157 15.0416C2.91158 14.7469 3.37134 14.3085 3.69187 13.7732C4.0124 13.2378 4.18168 12.6255 4.18168 12.0016C4.18168 11.3776 4.0124 10.7653 3.69187 10.23C3.37134 9.6946 2.91158 9.25624 2.36157 8.96157C2.22069 8.88554 2.10324 8.77248 2.02189 8.6346C1.94054 8.49672 1.89839 8.33925 1.89997 8.17917V6.11997C1.90077 5.62637 2.29997 5.22717 2.79357 5.22637H6.97997C7.01277 5.74717 6.77197 6.74477 7.57997 6.76477C8.38717 6.74557 8.14717 5.74557 8.17997 5.22637H22.2064C22.7 5.22717 23.0992 5.62637 23.1 6.11997V8.17597C23.1032 8.50237 22.9256 8.80317 22.6384 8.95837C22.2391 9.17218 21.8858 9.46257 21.5988 9.81295C21.3117 10.1633 21.0965 10.5668 20.9655 11.0004C20.8344 11.434 20.7901 11.8891 20.835 12.3398C20.8799 12.7905 21.0132 13.228 21.2272 13.6272Z" fill="#2969FF"/>
</g>
<defs>
<clipPath id="clip0_1_4495">
<rect width="24" height="24" fill="white" transform="translate(0.5)"/>
</clipPath>
</defs>
</svg>
